<svg width="52" height="48" viewBox="0 0 52 48" fill="none" xmlns="http://www.w3.org/2000/svg">
<path d="M19.0711 31.6187L19.0732 31.6184C19.0749 31.6181 19.0765 31.6174 19.0782 31.6171L42.8849 27.4194C43.471 27.316 43.9178 26.8364 43.9795 26.2444L45.9904 6.93522C46.0337 6.51894 45.8792 6.10686 45.5733 5.82162C45.267 5.53644 44.8448 5.41134 44.4328 5.48399L12.3383 11.1431L10.6548 7.08455C10.4152 6.50732 9.80705 6.17383 9.19154 6.28236L1.31308 7.67155C0.587807 7.79943 0.103646 8.49088 0.231531 9.21615C0.359416 9.94142 1.05087 10.4256 1.77614 10.2977L8.60141 9.09422C8.89958 9.81344 16.6575 28.5164 17.1039 29.5924C15.8154 30.4451 15.0818 32.0091 15.3668 33.6255C15.7498 35.7975 17.8285 37.2531 20.0006 36.8701L43.8111 32.6717C44.5363 32.5438 45.0205 31.8523 44.8926 31.1271C44.7647 30.4018 44.0733 29.9176 43.348 30.0455L19.5375 34.2439C18.8136 34.3716 18.1206 33.8863 17.9929 33.1624C17.8655 32.4395 18.3489 31.7478 19.0711 31.6187ZM43.155 8.41711L41.4313 24.9679L19.6646 28.8059L13.3847 13.6664L43.155 8.41711Z" fill="black"/>
<path d="M19.3821 41.0408C19.7651 43.2128 21.8439 44.6684 24.0159 44.2854C26.188 43.9024 27.6435 41.8237 27.2606 39.6516C26.8776 37.4796 24.7988 36.024 22.6267 36.407C20.4547 36.79 18.9991 38.8687 19.3821 41.0408ZM23.0898 39.0331C23.8137 38.9055 24.5068 39.3908 24.6344 40.1147C24.762 40.8386 24.2768 41.5316 23.5529 41.6593C22.829 41.7869 22.1359 41.3016 22.0082 40.5777C21.8806 39.8538 22.3659 39.1608 23.0898 39.0331Z" fill="black"/>
<path d="M37.9402 37.7686C38.3232 39.9406 40.402 41.3962 42.574 41.0132C44.7461 40.6302 46.2017 38.5514 45.8187 36.3794C45.4357 34.2073 43.3569 32.7518 41.1848 33.1348C39.0128 33.5177 37.5572 35.5965 37.9402 37.7686ZM41.6479 35.7609C42.3718 35.6333 43.0649 36.1186 43.1925 36.8425C43.3202 37.5664 42.8349 38.2594 42.111 38.3871C41.3871 38.5147 40.694 38.0294 40.5664 37.3055C40.4387 36.5816 40.924 35.8886 41.6479 35.7609Z" fill="black"/>
</svg>
