<svg width="14" height="14" viewBox="0 0 14 14" fill="none" xmlns="http://www.w3.org/2000/svg">
<path d="M7.04688 6.45325V6.95325H7.54688H13.4531C13.479 6.95325 13.5 6.97423 13.5 7.00012C13.5 7.02602 13.479 7.047 13.4531 7.047H7.54688H7.04688V7.547V13.4532C7.04688 13.4791 7.0259 13.5001 7 13.5001C6.9741 13.5001 6.95312 13.4791 6.95312 13.4532V7.547V7.047H6.45312H0.546875C0.520978 7.047 0.5 7.02602 0.5 7.00012C0.5 6.97423 0.520978 6.95325 0.546875 6.95325H6.45312H6.95312V6.45325V0.546997C6.95312 0.5211 6.9741 0.500122 7 0.500122C7.0259 0.500122 7.04688 0.5211 7.04688 0.546997V6.45325Z" fill="black" stroke="#21221C"/>
</svg>
