<svg width="44" height="60" viewBox="0 0 44 60" fill="none" xmlns="http://www.w3.org/2000/svg">
<circle cx="21.73" cy="21" r="13" fill="white"/>
<path d="M21.7297 0C9.74789 0 0 9.74789 0 21.7296C0 36.5993 19.446 58.4289 20.2739 59.3509C21.0516 60.217 22.4093 60.2155 23.1855 59.3509C24.0135 58.4289 43.4595 36.5993 43.4595 21.7296C43.4592 9.74789 33.7114 0 21.7297 0ZM21.7297 32.6624C15.7014 32.6624 10.7971 27.758 10.7971 21.7296C10.7971 15.7013 15.7015 10.797 21.7297 10.797C27.758 10.797 32.6623 15.7014 32.6623 21.7297C32.6623 27.7581 27.758 32.6624 21.7297 32.6624Z" fill="#F70909"/>
</svg>
