<svg width="25" height="32" viewBox="0 0 25 32" fill="none" xmlns="http://www.w3.org/2000/svg">
<path d="M12.5779 32C12.2321 32 11.9128 31.8151 11.74 31.5144L7.42682 24.0159C2.90403 22.0006 0 17.5355 0 12.5473C0 5.62859 5.60745 0 12.5002 0C19.3929 0 25 5.62859 25 12.5473C25 17.4316 22.1785 21.8597 17.7848 23.9187L13.4161 31.5144C13.2426 31.8148 12.9233 32 12.5779 32ZM12.5002 1.94245C6.67469 1.94245 1.93516 6.69985 1.93516 12.5473C1.93516 16.8582 4.5015 20.7072 8.47309 22.3525C8.67048 22.4344 8.83529 22.5791 8.94205 22.7646L12.5782 29.086L16.265 22.6762C16.3682 22.4962 16.5266 22.3544 16.7166 22.2715C20.573 20.5842 23.0652 16.7673 23.0652 12.547C23.0645 6.69985 18.3256 1.94245 12.5002 1.94245Z" fill="#E3C597"/>
<path d="M12.5002 19.7541C8.4947 19.7541 5.23622 16.483 5.23622 12.4628C5.23622 8.44256 8.49503 5.17146 12.5002 5.17146C16.5053 5.17146 19.7638 8.44256 19.7638 12.4628C19.7638 16.483 16.505 19.7541 12.5002 19.7541ZM12.5002 7.11359C9.56194 7.11359 7.17138 9.51317 7.17138 12.4625C7.17138 15.4118 9.56194 17.8113 12.5002 17.8113C15.4381 17.8113 17.8286 15.4118 17.8286 12.4625C17.8286 9.51317 15.4381 7.11359 12.5002 7.11359Z" fill="#E3C597"/>
</svg>
