<svg width="25" height="25" viewBox="0 0 25 25" fill="none" xmlns="http://www.w3.org/2000/svg">
<path d="M23.9032 16.8303L21.1923 14.8939C20.146 14.1466 18.7267 14.2641 17.8175 15.1732L16.229 16.7617C14.1933 15.3191 9.68183 10.8083 8.23803 8.77089L9.82656 7.18241C10.7358 6.27314 10.8533 4.85385 10.1059 3.80761L8.16958 1.09677C7.22963 -0.219046 5.33095 -0.37803 4.18569 0.767087L1.68451 3.26826C-0.563244 5.51596 -0.561438 8.55785 1.68954 11.6141C5.25947 16.461 8.53882 19.7403 13.3858 23.3102C16.2127 25.3923 19.3208 25.7262 21.7317 23.3153L24.2329 20.8141C25.3764 19.6706 25.2209 17.7714 23.9032 16.8303ZM22.8521 19.4331L20.3509 21.9343C18.6164 23.6688 16.5118 23.187 14.544 21.7377C9.86865 18.2943 6.70546 15.1311 3.262 10.4559C1.81322 8.48886 1.33041 6.38412 3.06542 4.64916L5.56669 2.14795C5.85898 1.85566 6.34135 1.89707 6.58046 2.23188L8.51684 4.94272C8.70703 5.20898 8.6771 5.57011 8.44575 5.80146L6.33178 7.91532C6.06547 8.18168 5.97607 8.57738 6.102 8.93236C6.77539 10.8299 14.172 18.2251 16.0676 18.8978C16.4226 19.0239 16.8183 18.9344 17.0846 18.668L19.1985 16.5541C19.4299 16.3228 19.7912 16.2929 20.0573 16.483L22.7682 18.4194C23.1038 18.659 23.1435 19.1417 22.8521 19.4331Z" fill="#E3C597"/>
</svg>
