<svg display="none" xmlns="http://www.w3.org/2000/svg">

	<symbol id="eat_ico" viewBox="0 0 110 110">
		<g>
			<path d="M98.4562 23.6938C97.6186 22.854 96.2586 22.854 95.4188 23.6938C94.5811 24.5315 94.5811 25.8936 95.4188 26.7313C96.2586 27.5711 97.6186 27.5711 98.4562 26.7313C99.2961 25.8936 99.2961 24.5317 98.4562 23.6938Z"/>
			<path d="M106.245 91.219C103.867 89.0699 68.0584 56.7045 65.5502 54.4373L72.8871 46.3095C80.7939 50.2575 90.3725 48.7611 96.6761 42.4585C102.981 36.1539 107.418 28.8497 109.17 21.8911C111.004 14.6065 109.775 8.35539 105.71 4.2897C101.644 0.224447 95.3923 -1.00445 88.1069 0.830304C81.148 2.58278 73.8439 7.02014 67.5408 13.3243C61.2702 19.5897 59.72 29.1685 63.6875 37.1089L55.0165 44.9352L48.0315 38.6749C49.9469 33.2638 48.6182 27.1666 44.4764 23.0255C41.7795 20.3514 25.1789 3.89117 21.8894 0.629426C21.0472 -0.205883 19.6871 -0.200297 18.8513 0.642317C18.016 1.4845 18.0215 2.84489 18.8642 3.6802L36.8691 21.533L33.8448 24.5567L15.813 6.70346C14.9699 5.8688 13.6096 5.87546 12.7749 6.71829C11.94 7.56133 11.9468 8.9215 12.7897 9.75617L30.8063 27.5944L27.7677 30.6322L9.73531 12.7801C8.89199 11.9458 7.53215 11.9523 6.69699 12.7951C5.86227 13.6382 5.86893 14.9985 6.71204 15.8332L24.729 33.6699L21.6786 36.7198L3.66083 18.8558C2.81859 18.0205 1.4581 18.0265 0.622518 18.8689C-0.212422 19.7113 -0.206836 21.0715 0.635409 21.9068C0.639277 21.9107 0.64164 21.9131 0.643359 21.9148C0.644004 21.9154 0.644433 21.9158 0.645078 21.9163C0.646582 21.9178 0.647012 21.918 0.646152 21.9173C0.795264 22.0652 2.77475 24.028 23.2164 44.2969C27.5026 48.5828 33.6398 49.6897 38.8611 47.8502L44.6423 54.2987L3.74849 91.2098C-1.01793 95.2759 -1.24568 102.5 3.12347 106.868C7.51604 111.26 14.7348 110.988 18.7828 106.243L55.192 65.9107C55.7363 66.5202 91.1737 106.214 91.2051 106.249C95.2434 110.987 102.465 111.281 106.869 106.877C111.246 102.501 111.002 95.2776 106.245 91.219ZM70.5783 16.3624C76.3414 10.5986 82.9393 6.56188 89.1562 4.99632C94.9168 3.54506 99.7169 4.37328 102.671 7.32758C105.626 10.2817 106.454 15.0813 105.003 20.8421C103.438 27.0588 99.4015 33.6566 93.6375 39.4202C87.4449 45.6128 77.613 45.7976 71.1926 39.9998C64.2657 33.7273 63.9243 23.0111 70.5783 16.3624ZM26.2487 41.2534L24.729 39.7454L39.9195 24.558L41.4445 26.0703C45.6341 30.2595 45.65 37.0541 41.443 41.2609C37.2744 45.4377 30.4777 45.4818 26.2487 41.2534ZM42.7704 45.7744C43.372 45.329 43.9444 44.8361 44.4829 44.2969C45.0191 43.7606 45.509 43.1874 45.9549 42.5835L51.8089 47.8302L47.8319 51.42L42.7704 45.7744ZM15.5724 103.387C15.5575 103.404 15.5425 103.421 15.5279 103.438C13.1152 106.286 8.80153 106.47 6.16157 103.83C3.52934 101.198 3.69714 96.8842 6.55325 94.464C6.57044 94.4496 6.58742 94.4346 6.60396 94.4197L8.38449 92.8127L17.1795 101.607L15.5724 103.387ZM20.0625 98.4137L11.5781 89.9299L14.7718 87.0474L22.9452 95.2202L20.0625 98.4137ZM25.828 92.0268L17.9655 84.1649L66.0392 40.7737C66.7272 41.63 67.4845 42.4381 68.3113 43.1864C68.6059 43.4523 68.9118 43.7074 69.2227 43.9568L25.828 92.0268ZM58.0881 62.7027L62.6711 57.626L92.6576 84.7292L84.7099 92.5203L58.0881 62.7027ZM90.4449 98.9433L87.5749 95.7288L95.8514 87.6154L98.9611 90.4262L90.4449 98.9433ZM103.831 103.839C101.408 106.262 97.2224 106.538 94.4286 103.408L93.3101 102.154L102.152 93.3109L103.388 94.4279C103.405 94.4432 103.422 94.4582 103.439 94.473C106.285 96.8833 106.473 101.197 103.831 103.839Z"/>
			<path d="M93.2837 30.1263C92.3729 29.3656 91.0177 29.4872 90.2576 30.3983C89.4149 31.4075 88.5078 32.3981 87.56 33.3438C85.0232 35.8818 81.1227 36.3413 78.074 34.4604C77.0642 33.8373 75.7409 34.151 75.1176 35.1608C74.4947 36.1703 74.8082 37.494 75.818 38.117C80.5711 41.0494 86.649 40.3335 90.5973 36.3828C91.6346 35.3479 92.6303 34.2606 93.5557 33.1524C94.3158 32.2417 94.194 30.8869 93.2837 30.1263Z"/>
		</g>	
	</symbol>
	<symbol id="vegatables_ico" viewBox="0 0 110 110">
		<g>
			<path d="M15.0656 97.3441L15.0458 97.3291C14.104 96.6079 12.7556 96.7862 12.0337 97.7283C11.3123 98.6701 11.491 100.019 12.4327 100.74L12.4525 100.755C12.8422 101.054 13.3015 101.198 13.7574 101.198C14.403 101.198 15.0415 100.908 15.4644 100.356C16.1862 99.4142 16.0075 98.0658 15.0656 97.3441Z"/>
			<path d="M15.0656 79.7272L15.0458 79.7122C14.104 78.9909 12.7556 79.1692 12.0337 80.1113C11.3123 81.0532 11.491 82.4018 12.4327 83.1234L12.4525 83.1385C12.8422 83.4371 13.3015 83.5815 13.7574 83.5815C14.403 83.5815 15.0415 83.2914 15.4644 82.7393C16.1862 81.7972 16.0075 80.4489 15.0656 79.7272Z"/>
			<path d="M15.0656 62.11L15.0458 62.095C14.104 61.3737 12.7556 61.5521 12.0337 62.4941C11.3123 63.436 11.491 64.7846 12.4327 65.5062L12.4525 65.5213C12.8422 65.8199 13.3015 65.9643 13.7574 65.9643C14.403 65.9643 15.0415 65.6743 15.4644 65.1221C16.1862 64.18 16.0075 62.8317 15.0656 62.11Z"/>
			<path d="M97.5463 97.3376L97.5263 97.3225C96.5806 96.6058 95.2331 96.7915 94.5164 97.7372C93.7997 98.6827 93.9853 100.03 94.931 100.747L94.951 100.762C95.3392 101.056 95.7949 101.199 96.247 101.199C96.8964 101.199 97.5384 100.905 97.961 100.348C98.6777 99.402 98.4919 98.0543 97.5463 97.3376Z"/>
			<path d="M97.5467 79.7206L97.5267 79.7056C96.5809 78.9889 95.2334 79.1745 94.5167 80.1202C93.8002 81.0656 93.9858 82.4133 94.9314 83.13L94.9514 83.145C95.3396 83.4392 95.7953 83.5814 96.2473 83.5814C96.8968 83.5814 97.5387 83.2881 97.9613 82.7306C98.678 81.7851 98.4924 80.4374 97.5467 79.7206Z"/>
			<path d="M97.5463 62.1035L97.5263 62.0884C96.5805 61.3717 95.233 61.5573 94.5163 62.5031C93.7996 63.4488 93.9854 64.7961 94.931 65.5128L94.951 65.5279C95.3392 65.822 95.7949 65.9642 96.2469 65.9642C96.8964 65.9642 97.5383 65.6709 97.9609 65.1134C98.6776 64.1679 98.492 62.8202 97.5463 62.1035Z"/>
			<path d="M79.38 70.4688H79.3521C78.1657 70.4688 77.2036 71.4306 77.2036 72.6172C77.2036 73.8038 78.1655 74.7656 79.3521 74.7656H79.38C80.5663 74.7656 81.5284 73.8038 81.5284 72.6172C81.5284 71.4306 80.5663 70.4688 79.38 70.4688Z"/>
			<path d="M30.65 88.0859H30.6221C29.4357 88.0859 28.4736 89.0478 28.4736 90.2344C28.4736 91.421 29.4357 92.3828 30.6221 92.3828H30.65C31.8364 92.3828 32.7984 91.421 32.7984 90.2344C32.7984 89.0478 31.8366 88.0859 30.65 88.0859Z"/>
			<path d="M17.3563 39.787C16.9567 39.3874 16.4024 39.1575 15.8374 39.1575C15.2724 39.1575 14.7181 39.3874 14.3185 39.787C13.9191 40.1866 13.689 40.7409 13.689 41.3081C13.689 41.8731 13.9188 42.4252 14.3185 42.8249C14.7181 43.2266 15.2704 43.4543 15.8374 43.4543C16.4024 43.4543 16.9567 43.2266 17.3563 42.8249C17.7557 42.4252 17.9858 41.8731 17.9858 41.3081C17.9858 40.7409 17.756 40.1887 17.3563 39.787Z"/>
			<path d="M107.852 52.8516H98.9282C102.768 50.643 105.361 46.5016 105.361 41.7633C105.361 36.8442 102.57 32.4655 98.3183 30.3349C99.0518 28.7042 99.4323 26.9332 99.4323 25.1038C99.4323 18.054 93.6968 12.3183 86.6467 12.3183C84.4239 12.3183 82.2892 12.879 80.3868 13.9522C77.8907 12.193 74.9059 11.2393 71.8244 11.2393C71.6154 11.2393 71.408 11.2466 71.2009 11.2552C68.9311 4.63848 62.6018 0.0103125 55.4733 0.0103125C49.0452 0.0103125 43.2285 3.73334 40.4879 9.43809C39.9738 9.39039 39.4573 9.36633 38.9413 9.36633C32.1855 9.36633 26.1854 13.446 23.6236 19.5293C23.169 19.3905 22.7064 19.2693 22.237 19.1643C22.4832 16.4184 23.3542 14.3133 24.8402 12.8979C26.1347 11.6649 27.4349 11.4095 27.4897 11.3992L27.4598 11.4041L27.4594 11.4018C27.9136 11.3349 28.3435 11.1255 28.6698 10.7976C29.0692 10.398 29.2993 9.84586 29.2993 9.28082C29.2993 8.71363 29.0694 8.16148 28.6698 7.75973C28.2702 7.36012 27.7159 7.13023 27.1509 7.13023C27.0304 7.13023 26.9107 7.14291 26.7925 7.16311L26.7919 7.15945C25.5161 7.36033 23.7714 8.07533 22.1622 9.5281V2.14844C22.1622 0.961856 21.2001 0 20.0138 0H14.8575C13.6712 0 12.7091 0.961856 12.7091 2.14844V10.1817C10.2375 7.15258 7.56938 5.38184 7.36248 5.2467C6.37012 4.59937 5.04281 4.8791 4.39377 5.86996C3.74451 6.86104 4.02187 8.19199 5.01145 8.84318C5.08256 8.8898 11.5827 13.2425 12.5484 19.5042C5.27828 21.688 0 28.0777 0 35.6026C0 38.729 1.78299 46.2361 3.53289 52.8516H2.14844C0.96207 52.8516 0 53.8134 0 55V107.852C0 109.038 0.96207 110 2.14844 110H107.852C109.038 110 110 109.038 110 107.852V55C110 53.8134 109.038 52.8516 107.852 52.8516ZM38.9413 13.6632C39.7678 13.6632 40.5954 13.7459 41.4017 13.9092C42.451 14.1215 43.4962 13.5296 43.8533 12.5202C45.592 7.60783 50.2616 4.30719 55.4733 4.30719C60.5522 4.30719 65.0848 7.47377 66.9245 12.0721C61.1213 14.1026 56.9461 19.6298 56.9461 26.1173C56.9461 27.3038 57.9081 28.2657 59.0945 28.2657C60.2809 28.2657 61.2429 27.3038 61.2429 26.1173C61.2429 20.2828 65.9897 15.5362 71.8242 15.5362C74.4116 15.5362 76.9033 16.4822 78.8399 18.2001C79.6037 18.8775 80.7391 18.9237 81.5555 18.3109C83.033 17.2015 84.7935 16.6152 86.6463 16.6152C91.3269 16.6152 95.135 20.4233 95.135 25.1038C95.135 26.944 94.556 28.6947 93.46 30.1664C93.0316 30.742 92.9186 31.4937 93.1595 32.1698C93.4003 32.846 93.9623 33.3573 94.6584 33.5328C98.4298 34.4837 101.064 37.8681 101.064 41.7633C101.064 46.4438 97.2557 50.252 92.5751 50.252C92.0419 50.252 91.5005 50.2 90.9657 50.0975C89.9244 49.8972 88.8933 50.4876 88.5371 51.4862C88.3689 51.9582 88.156 52.4152 87.9057 52.8516H85.1935L93.9911 40.2402C94.3218 39.7663 94.4475 39.1789 94.3398 38.6111C94.2322 38.0432 93.9003 37.5427 93.4192 37.2225L87.1554 33.0541C86.6675 32.7293 86.0677 32.6178 85.496 32.7461C84.9241 32.8741 84.4291 33.2301 84.1262 33.732L80.9939 38.9183L83.5579 25.9484C83.7865 24.7906 83.0388 23.665 81.883 23.4274L76.4163 22.3031C75.8514 22.1867 75.2632 22.3027 74.7845 22.6245C74.3059 22.9464 73.9767 23.4472 73.8712 24.0142L73.1698 27.7814H68.156C66.9696 27.7814 66.0075 28.7433 66.0075 29.9299V42.2929C64.5797 34.9819 58.1286 29.4465 50.4062 29.4465C46.9264 29.4465 43.6212 30.5506 40.8485 32.6395C38.5619 34.3619 36.766 36.7063 35.6853 39.342C35.959 37.7285 36.094 36.491 36.094 35.6028C36.094 32.6893 35.3027 29.9456 33.9112 27.5501C35.0399 24.4789 37.9745 22.3925 41.2938 22.3925C41.8213 22.3925 42.3498 22.4456 42.865 22.55C43.9149 22.7636 44.9616 22.1699 45.3181 21.1595C45.7791 19.8537 46.5813 18.6856 47.6384 17.7815C48.5399 17.0103 48.6456 15.6539 47.8743 14.7522C47.1032 13.8505 45.7471 13.7451 44.845 14.5161C43.6646 15.5259 42.6901 16.7501 41.9719 18.1146C41.7461 18.1019 41.5198 18.0956 41.294 18.0956C37.0178 18.0956 33.1549 20.3343 30.9755 23.826C29.955 22.8435 28.8095 21.9766 27.5614 21.2483C29.4478 16.7103 33.9122 13.6632 38.9413 13.6632ZM78.5516 51.2735L86.6439 37.8748L89.2106 39.583L79.9548 52.8516H78.2397L78.5516 51.2735ZM75.8641 42.7103V36.7447C75.8755 36.6996 75.888 36.6549 75.8966 36.6085L77.6946 26.9526L78.9289 27.2065L75.8641 42.7103ZM70.2889 49.1247C70.2982 49.0432 70.3044 48.9607 70.3044 48.877V32.0781H71.5675V52.8516H70.8894C70.8952 52.7171 70.8984 52.5824 70.8984 52.4472C70.8984 51.2761 70.681 50.1563 70.2889 49.1247ZM40.8203 39.1016C40.7567 39.1016 40.6942 39.1056 40.6306 39.1063C42.7311 35.845 46.4118 33.7431 50.406 33.7431C56.0826 33.7431 60.8169 37.8426 61.812 43.2358C58.8393 43.2569 56.2048 44.7528 54.5746 47.0415C51.8201 42.2995 46.6883 39.1016 40.8203 39.1016ZM52.2193 52.8516H29.7595H29.4216C30.4324 47.4779 35.1577 43.3984 40.8205 43.3984C46.4834 43.3984 51.2084 47.4779 52.2193 52.8516ZM61.875 47.5312C64.4813 47.5312 66.6016 49.7365 66.6016 52.4472C66.6016 52.5828 66.5951 52.7175 66.5846 52.8516H57.1652C57.1547 52.7175 57.1482 52.5828 57.1482 52.4472C57.1484 49.7365 59.2687 47.5312 61.875 47.5312ZM17.006 4.29688H17.8653V18.7037C17.5772 18.7064 17.2906 18.7142 17.006 18.7294V4.29688ZM4.42514 33.9045C4.5592 33.9307 4.69756 33.9453 4.83914 33.9453H15.4606C16.647 33.9453 17.609 32.9835 17.609 31.7969C17.609 30.6103 16.647 29.6484 15.4606 29.6484H5.93098C8.25344 25.6921 12.8126 22.9962 18.0469 22.9962C25.6287 22.9962 31.7969 28.6513 31.7969 35.6026C31.7969 36.1631 31.7073 37.1974 31.3659 39.1016H22.8325C21.6462 39.1016 20.6841 40.0634 20.6841 41.25C20.6841 42.4366 21.6462 43.3984 22.8325 43.3984H29.9666C27.3599 45.8388 25.5748 49.1434 25.0712 52.8516H7.97951C5.63234 44.0889 4.29688 37.8452 4.29688 35.6026C4.29688 35.0266 4.34307 34.4605 4.42514 33.9045ZM105.703 70.4688H86.7969C85.6105 70.4688 84.6484 71.4306 84.6484 72.6172C84.6484 73.8038 85.6105 74.7656 86.7969 74.7656H105.703V88.0859H37.9427C36.7563 88.0859 35.7943 89.0478 35.7943 90.2344C35.7943 91.421 36.7563 92.3828 37.9427 92.3828H105.703V105.703H4.29688V92.3828H23.2031C24.3895 92.3828 25.3516 91.421 25.3516 90.2344C25.3516 89.0478 24.3895 88.0859 23.2031 88.0859H4.29688V74.7656H72.0573C73.2437 74.7656 74.2057 73.8038 74.2057 72.6172C74.2057 71.4306 73.2437 70.4688 72.0573 70.4688H4.29688V57.1484H6.33424H105.703V70.4688Z"/>
			<path d="M52.7378 11.6016H52.7095C51.5231 11.6016 50.561 12.5634 50.561 13.75C50.561 14.9366 51.5231 15.8984 52.7095 15.8984H52.7378C53.9242 15.8984 54.8863 14.9366 54.8863 13.75C54.8863 12.5634 53.9242 11.6016 52.7378 11.6016Z"/>
		</g>	
	</symbol>
	<symbol id="wallet_ico" viewBox="0 0 110 110">
		<g>
			<path d="M54.4856 71.7344C51.4056 71.7344 48.8999 74.2401 48.8999 77.3201C48.8999 80.4001 51.4058 82.9058 54.4856 82.9058C57.5654 82.9058 60.0714 80.4001 60.0714 77.3201C60.0714 74.2401 57.5658 71.7344 54.4856 71.7344ZM54.4856 78.6092C53.7747 78.6092 53.1966 78.031 53.1966 77.3201C53.1966 76.6092 53.7747 76.031 54.4856 76.031C55.1965 76.031 55.7747 76.6092 55.7747 77.3201C55.7747 78.031 55.1965 78.6092 54.4856 78.6092Z"/>
			<path d="M71.7299 64.6143C71.3303 64.2147 70.776 63.9846 70.2109 63.9846C69.6459 63.9846 69.0916 64.2145 68.692 64.6143C68.2902 65.0137 68.0625 65.568 68.0625 66.1331C68.0625 66.6983 68.2902 67.2526 68.692 67.652C69.0916 68.0518 69.6459 68.2815 70.2109 68.2815C70.776 68.2815 71.3303 68.0518 71.7299 67.652C72.1295 67.2526 72.3594 66.6983 72.3594 66.1331C72.3594 65.568 72.1295 65.0137 71.7299 64.6143Z"/>
			<path d="M99.255 30.9347H96.9388L66.634 0.629877C65.795 -0.209088 64.4344 -0.209088 63.5957 0.629877L55.8321 8.39369L24.782 0.0738616C23.6358 -0.23358 22.4576 0.44683 22.1506 1.59302L14.289 30.9347H9.02322C4.04787 30.9347 0 34.9823 0 39.9579C0 40.0771 0.00451172 40.1955 0.00902344 40.3137C0.00408203 40.3728 0 40.4321 0 40.4924V99.2582C0 105.181 4.81895 110 10.742 110H87.6537C87.687 110 87.7196 109.998 87.7529 109.997H99.2548C105.178 109.997 109.997 105.179 109.997 99.2554V41.6764C109.997 35.7532 105.178 30.9347 99.255 30.9347ZM97.3356 35.2313H99.255C102.809 35.2313 105.7 38.1227 105.7 41.6764V58.8947C105.7 61.7024 103.416 63.9867 100.608 63.9867H98.3956V55.426C98.3956 49.5777 93.6972 44.8095 87.8771 44.6896L97.3356 35.2313ZM57.9934 12.309C57.9936 12.3088 57.9938 12.3084 57.9941 12.3081L65.1151 5.18714L93.2093 33.2814L81.8763 44.6144H77.946L83.0867 39.4734C83.9257 38.6345 83.9257 37.2741 83.0867 36.4351C81.3476 34.6959 81.3476 31.8664 83.0867 30.1273C83.9257 29.2883 83.9257 27.9279 83.0867 27.0888L71.3073 15.3097C70.4683 14.4708 69.1079 14.4708 68.2688 15.3097C66.5296 17.0491 63.6999 17.0491 61.9609 15.3097C61.122 14.4708 59.7614 14.4708 58.9226 15.3097L29.6179 44.6146H25.6876L57.9934 12.309ZM51.6708 36.5429C46.7663 36.5429 42.6572 40.006 41.655 44.6146H35.6941L60.6302 19.6786C63.3826 21.3191 66.8471 21.3191 69.5995 19.6786L78.7177 28.7968C77.0773 31.5489 77.0773 35.0139 78.7177 37.7661L71.8691 44.6146H61.6866C60.6843 40.0058 56.5754 36.5429 51.6708 36.5429ZM57.2107 44.6146H46.1317C47.0035 42.4067 49.1573 40.8398 51.6712 40.8398C54.1851 40.8398 56.3387 42.4067 57.2107 44.6146ZM23.4169 40.8087L29.1064 19.575C30.6664 19.6002 32.2182 19.2018 33.608 18.399C34.998 17.5965 36.1165 16.4555 36.8773 15.0884L46.5463 17.6792L32.5147 31.7109L23.4169 40.8087ZM25.7452 4.78023L52.3237 11.9019L50.0547 14.1711L36.1694 10.4504C35.6187 10.3028 35.0324 10.3801 34.5391 10.665C34.0456 10.9499 33.6856 11.4191 33.5382 11.9695C33.2297 13.1203 32.4917 14.0821 31.46 14.6779C30.4281 15.2736 29.2261 15.4318 28.0751 15.1235C26.9294 14.8162 25.751 15.4964 25.4439 16.6426L17.93 44.6842H15.0528L25.7452 4.78023ZM9.02322 35.2313H13.1373L10.6043 44.6842H9.02301C6.41674 44.6842 4.29666 42.5639 4.29666 39.9579C4.29688 37.3516 6.41738 35.2313 9.02322 35.2313ZM105.7 99.2554C105.7 102.809 102.809 105.701 99.255 105.701H96.2433C97.5941 103.904 98.3956 101.673 98.3956 99.258V90.6264H99.6847C101.929 90.6264 104.005 89.9039 105.7 88.6823V99.2554ZM105.7 80.3144C105.7 83.6313 103.001 86.3298 99.6847 86.3298H54.5688C49.5935 86.3298 45.5456 82.2821 45.5456 77.3065C45.5456 72.331 49.5932 68.2833 54.5688 68.2833H61.0799C62.2664 68.2833 63.2283 67.3213 63.2283 66.1349C63.2283 64.9485 62.2664 63.9865 61.0799 63.9865H54.5688C47.2242 63.9865 41.2489 69.9617 41.2489 77.3063C41.2489 84.651 47.2242 90.6262 54.5688 90.6262H94.099V99.2578C94.099 102.778 91.2611 105.649 87.7532 105.703H14.6089V81.5095C14.6089 80.3232 13.6471 79.3611 12.4605 79.3611C11.2739 79.3611 10.3121 80.3232 10.3121 81.5095V105.687C6.95793 105.465 4.29666 102.667 4.29666 99.2582V47.6398C5.6723 48.4893 7.29115 48.9809 9.02301 48.9809H87.6535C91.2074 48.9809 94.0986 51.8723 94.0986 55.426V63.9867H78.5647C77.3781 63.9867 76.4163 64.9487 76.4163 66.1351C76.4163 67.3215 77.3781 68.2835 78.5647 68.2835H100.608C102.484 68.2835 104.232 67.7282 105.7 66.7764V80.3144Z"/>
			<path d="M13.9799 71.6112C13.5803 71.2118 13.026 70.9817 12.4609 70.9817C11.8959 70.9817 11.3416 71.2116 10.942 71.6112C10.5424 72.0108 10.3125 72.5651 10.3125 73.1301C10.3125 73.6952 10.5424 74.2495 10.942 74.6491C11.3416 75.0487 11.8959 75.2786 12.4609 75.2786C13.026 75.2786 13.5803 75.0487 13.9799 74.6491C14.3795 74.2495 14.6094 73.6952 14.6094 73.1301C14.6092 72.5651 14.3793 72.0108 13.9799 71.6112Z"/>
		</g>	
	</symbol>
	<symbol id="scooter_ico" viewBox="0 0 110 110">
		<g>
			<path d="M46.9921 78.6926C46.426 78.6926 45.8716 78.9228 45.4718 79.3226C45.072 79.7224 44.8418 80.2777 44.8418 80.843C44.8418 81.4083 45.072 81.9635 45.4718 82.3633C45.8716 82.7632 46.426 82.9933 46.9921 82.9933C47.5574 82.9933 48.1118 82.7632 48.5125 82.3633C48.9123 81.9635 49.1425 81.4108 49.1425 80.843C49.1425 80.2777 48.9123 79.7224 48.5125 79.3226C48.1118 78.9228 47.5574 78.6926 46.9921 78.6926Z"/>
			<path d="M89.8215 42.5911L84.8102 19.9512C86.1625 19.7681 87.3553 19.0801 88.1944 18.0839C89.1848 18.703 90.3532 19.0625 91.6047 19.0625H95.9054C97.0932 19.0625 98.0558 18.0999 98.0558 16.9121V8.31075C98.0558 7.12302 97.0932 6.16041 95.9054 6.16041H91.6047C90.3162 6.16041 89.115 6.54176 88.1062 7.1961C87.1218 6.08313 85.6846 5.37923 84.0853 5.37923H71.3915C69.1109 5.37923 67.1588 6.80971 66.3819 8.81978H61.2849C58.2021 8.81978 55.694 11.328 55.694 14.4107C55.694 17.4934 58.2021 20.0016 61.2849 20.0016H72.3533V24.335C72.3533 25.5228 73.3159 26.4854 74.5036 26.4854C75.6913 26.4854 76.654 25.5228 76.654 24.335V20.0016H80.4171L85.8148 44.3904L75.5989 62.586C74.4826 64.5667 72.3776 65.7972 70.1038 65.7972H44.6012C43.5336 56.8439 35.8999 49.8779 26.6643 49.8779C22.5778 49.8779 18.7223 51.2093 15.5144 53.7276C15.5102 53.7309 15.506 53.7343 15.5018 53.7377C11.6824 56.7414 9.28177 61.0522 8.72234 65.7972H4.30573C4.58628 50.3383 17.249 37.8494 32.7726 37.8494H48.0266C49.2303 37.8494 50.2106 38.8297 50.2106 40.0342V59.3462C50.2106 60.5339 51.1732 61.4965 52.3609 61.4965H63.8031C68.4709 61.4965 72.7724 58.9581 75.0286 54.8733C76.0727 52.9833 76.6262 50.8431 76.6279 48.6852L76.6388 41.5412C76.6405 40.3534 75.6787 39.3891 74.491 39.3875C74.4902 39.3875 74.4893 39.3875 74.4885 39.3875C73.3024 39.3875 72.3398 40.3484 72.3381 41.5344L72.3272 48.6801C72.3264 50.1148 71.9585 51.5377 71.2646 52.7935C69.7645 55.5083 66.9052 57.195 63.8031 57.195H54.5113V40.0334C54.5113 38.9322 54.2341 37.894 53.7477 36.9843C55.6797 35.8679 56.9833 33.7814 56.9833 31.3951C56.9833 27.8377 54.0888 24.944 50.5323 24.944H42.6835C41.9292 24.944 41.206 25.0751 40.5332 25.3136V6.45104C40.5332 2.89373 37.6386 0 34.0821 0H20.2099C10.1537 0 1.79084 7.38341 0.253674 17.0129C0.188995 17.2179 0.153716 17.4354 0.153716 17.6614C0.153716 17.6748 0.155396 17.6874 0.155396 17.7C0.0529187 18.5232 0 19.3607 0 20.2099V31.3959C0 34.6256 2.38638 37.3085 5.48842 37.7747L10.2503 42.5365C3.94118 48.5138 0 56.9657 0 66.3222V67.9476C0 69.1353 0.962616 70.0979 2.15035 70.0979H14.2351C14.2074 70.2365 14.1923 70.381 14.1923 70.528C14.1923 73.6485 15.3473 76.5036 17.249 78.6926H2.15035C0.962616 78.6926 0 79.656 0 80.8429C0 82.0307 0.962616 82.9933 2.15035 82.9933H26.4157C26.4988 82.9958 26.5811 83 26.6643 83C33.5412 83 39.1363 77.4049 39.1363 70.528C39.1363 70.381 39.1212 70.2365 39.0935 70.0979H70.1038C73.4898 70.0979 76.654 68.4751 78.6371 65.7905H81.3604C80.748 67.2806 80.4229 68.8867 80.4229 70.528C80.4229 73.6485 81.5779 76.5036 83.4796 78.6926H55.5932C54.4054 78.6926 53.4428 79.656 53.4428 80.8429C53.4428 82.0307 54.4054 82.9933 55.5932 82.9933H92.6463C92.7295 82.9958 92.8118 83 92.895 83C99.7719 83 105.367 77.4049 105.367 70.528C105.367 68.8867 105.042 67.2806 104.43 65.7905H107.947C109.135 65.7905 110.098 64.8279 110.098 63.6402C110.098 52.2895 101.072 43.0069 89.8215 42.5911ZM42.6835 29.2455H50.5323C51.7175 29.2455 52.6826 30.2098 52.6826 31.3959C52.6826 32.5811 51.7175 33.5462 50.5323 33.5462H42.6835C41.4975 33.5462 40.5332 32.5811 40.5332 31.3959C40.5332 30.2098 41.4975 29.2455 42.6835 29.2455ZM4.30069 20.2099C4.30069 20.0772 4.30741 19.9453 4.31077 19.8126H27.8411C29.0288 19.8126 29.9914 18.85 29.9914 17.6622C29.9914 16.4745 29.0288 15.5119 27.8411 15.5119H5.00963C7.01886 9.02557 13.0726 4.30153 20.2099 4.30153H34.0813C35.2674 4.30153 36.2317 5.26583 36.2317 6.45188V31.3959C36.2317 32.5811 35.2674 33.5462 34.0813 33.5462H6.45188C6.45188 33.5462 6.45104 33.5462 6.4502 33.5462C5.26499 33.5462 4.30069 32.5811 4.30069 31.3959V20.2099ZM11.6429 37.8469H16.5635C15.5304 38.4366 14.5333 39.0825 13.5741 39.778L11.6429 37.8469ZM34.8356 70.528C34.8356 75.0059 31.2145 78.6523 26.7474 78.6968C26.7197 78.6959 26.692 78.6926 26.6643 78.6926H26.4165C22.0251 78.5607 18.493 74.9505 18.493 70.528C18.493 70.381 18.4779 70.2365 18.4501 70.0979H34.8784C34.8507 70.2365 34.8356 70.381 34.8356 70.528ZM13.0617 65.7972C13.5942 62.381 15.3884 59.295 18.1595 57.1186C18.1662 57.1144 18.1721 57.1085 18.1788 57.1043C20.6198 55.1908 23.5538 54.1786 26.6643 54.1786C33.5252 54.1786 39.2295 59.2227 40.2652 65.7972H13.0617ZM91.6047 10.4611H93.7551V14.7618H91.6047C90.4187 14.7618 89.4544 13.7975 89.4544 12.6114C89.4544 11.4262 90.4187 10.4611 91.6047 10.4611ZM59.9947 14.4107C59.9947 13.6992 60.5734 13.1205 61.2849 13.1205H66.0223V14.6324C66.0223 14.9987 66.0593 15.3557 66.129 15.7009H61.2849C60.5734 15.7009 59.9947 15.1221 59.9947 14.4107ZM74.5036 15.7009H71.3915C70.8027 15.7009 70.323 15.2221 70.323 14.6324V10.7484C70.323 10.1595 70.8027 9.67992 71.3915 9.67992H84.0853C84.6741 9.67992 85.1537 10.1595 85.1537 10.7484V14.6324C85.1537 15.2221 84.6741 15.7009 84.0853 15.7009H74.5036ZM101.066 70.528C101.066 75.0059 97.4451 78.6523 92.9781 78.6968C92.9504 78.6959 92.9227 78.6926 92.895 78.6926H92.6472C88.2557 78.5607 84.7236 74.9505 84.7236 70.528C84.7236 68.8195 85.2562 67.1681 86.2373 65.7905H99.5526C100.534 67.1681 101.066 68.8195 101.066 70.528ZM81.1462 61.4898L89.346 46.8851C97.7198 47.0388 104.614 53.3597 105.659 61.4898H81.1462Z"/>
			<path d="M74.5037 35.0868C75.6914 35.0868 76.654 34.1242 76.654 32.9365C76.654 31.7487 75.6914 30.7861 74.5037 30.7861H74.4961C73.3084 30.7861 72.3491 31.7487 72.3491 32.9365C72.3491 34.1242 73.3159 35.0868 74.5037 35.0868Z"/>
		</g>	
	</symbol>
	
</svg>