<svg width="42" height="46" viewBox="0 0 42 46" fill="none" xmlns="http://www.w3.org/2000/svg">
<path d="M33.3193 0.202601L5.74471 5.06475C5.11019 5.17663 4.68688 5.78406 4.79926 6.42141L5.92526 12.8073L4.77632 13.0099C2.87574 13.345 1.60336 15.1708 1.93998 17.0798C2.2766 18.9889 4.0967 20.2694 5.99728 19.9343L7.14623 19.7317L7.53965 21.9629L6.39071 22.1655C4.49013 22.5006 3.21774 24.3264 3.55436 26.2355C3.89098 28.1445 5.71109 29.4251 7.61167 29.0899L8.76061 28.8873L9.15403 31.1185L8.00509 31.3211C6.10451 31.6563 4.83213 33.4821 5.16875 35.3911C5.50537 37.3002 7.32548 38.5807 9.22606 38.2456L10.375 38.043L11.3382 43.5056C11.4506 44.1429 12.0561 44.5689 12.6906 44.4571L40.2653 39.5949C40.8998 39.483 41.3231 38.8756 41.2107 38.2382L34.6718 1.15408C34.5594 0.516728 33.9539 0.0907173 33.3193 0.202601ZM5.5903 17.6261C4.95677 17.7379 4.35007 17.311 4.23786 16.6747C4.12565 16.0383 4.54978 15.4297 5.18331 15.318L6.33225 15.1154L6.73924 17.4236L5.5903 17.6261ZM7.20468 26.7818C6.57116 26.8935 5.96445 26.4667 5.85225 25.8303C5.74004 25.1939 6.16417 24.5853 6.79769 24.4736L7.94664 24.2711L8.35362 26.5792L7.20468 26.7818ZM8.81907 35.9374C8.18554 36.0491 7.57884 35.6223 7.46663 34.9859C7.35442 34.3496 7.77855 33.741 8.41208 33.6293L9.56102 33.4267L9.96801 35.7348L8.81907 35.9374ZM38.7093 37.4894L13.4326 41.9463L11.8589 33.0215L12.2419 32.954C12.8764 32.8421 13.2997 32.2347 13.1873 31.5973C13.075 30.96 12.4694 30.534 11.8349 30.6458L11.4519 30.7134L10.2445 23.8659L10.6275 23.7983C11.262 23.6865 11.6853 23.079 11.573 22.4417C11.4606 21.8043 10.855 21.3783 10.2205 21.4902L9.83753 21.5577L8.63014 14.7102L9.01312 14.6427C9.64764 14.5308 10.0709 13.9234 9.95857 13.286C9.84618 12.6487 9.24065 12.2227 8.60613 12.3346L8.22315 12.4021L7.30064 7.1703L32.5774 2.71333L38.7093 37.4894Z" fill="#21221C"/>
<path d="M15.2959 23.8478L27.2449 21.7409C27.8794 21.629 28.3028 21.0216 28.1904 20.3842C28.078 19.7469 27.4725 19.3208 26.8379 19.4327L14.8889 21.5397C14.2544 21.6515 13.8311 22.259 13.9435 22.8963C14.0559 23.5337 14.6613 23.9597 15.2959 23.8478Z" fill="#21221C"/>
<path d="M32.2398 20.9542C32.8743 20.8423 33.2976 20.2349 33.1852 19.5975C33.0728 18.9601 32.4673 18.5342 31.8328 18.646C31.1982 18.7579 30.7749 19.3653 30.8873 20.0027C30.9997 20.6401 31.6052 21.0661 32.2398 20.9542Z" fill="#21221C"/>
<path d="M16.1099 28.4641L28.0589 26.3572C28.6934 26.2453 29.1167 25.6379 29.0043 25.0005C28.892 24.3632 28.2864 23.9371 27.6519 24.049L15.7029 26.156C15.0684 26.2678 14.6451 26.8753 14.7574 27.5126C14.8698 28.15 15.4753 28.576 16.1099 28.4641Z" fill="#21221C"/>
<path d="M33.0537 25.5704C33.6883 25.4585 34.1116 24.8511 33.9992 24.2138C33.8868 23.5764 33.2813 23.1504 32.6467 23.2623C32.0122 23.3742 31.5889 23.9816 31.7013 24.6189C31.8137 25.2563 32.4192 25.6823 33.0537 25.5704Z" fill="#21221C"/>
<path d="M15.4149 19.1463L30.5809 16.4722C31.2154 16.3603 31.6388 15.7529 31.5264 15.1155C31.414 14.4781 30.8085 14.0521 30.1739 14.164L29.394 14.3016L29.3688 14.1588C28.7882 10.866 25.7906 8.57424 22.4364 8.67455L22.3377 8.11521C22.2253 7.47786 21.6198 7.05185 20.9853 7.16373C20.3508 7.27562 19.9275 7.88304 20.0398 8.52039L20.1462 9.12343C17.1072 10.2581 15.1974 13.3539 15.7624 16.558L15.7876 16.7007L15.0079 16.8382C14.3734 16.9501 13.9501 17.5575 14.0625 18.1949C14.1748 18.8322 14.7804 19.2582 15.4149 19.1463ZM18.0603 16.1528C17.6451 13.7984 19.3285 11.5265 21.8127 11.0885C24.2969 10.6505 26.6558 12.2096 27.0709 14.564L27.0961 14.7067L18.0855 16.2955L18.0603 16.1528Z" fill="#21221C"/>
<path d="M16.9239 33.0804L28.8728 30.9734C29.5074 30.8616 29.9307 30.2541 29.8183 29.6168C29.7059 28.9794 29.1004 28.5534 28.4659 28.6653L16.5169 30.7722C15.8823 30.8841 15.459 31.4915 15.5714 32.1289C15.6838 32.7662 16.2893 33.1923 16.9239 33.0804Z" fill="#21221C"/>
<path d="M33.8677 30.1867C34.5022 30.0748 34.9255 29.4674 34.8131 28.8301C34.7008 28.1927 34.0953 27.7667 33.4607 27.8786C32.8262 27.9905 32.4029 28.5979 32.5153 29.2352C32.6276 29.8726 33.2332 30.2986 33.8677 30.1867Z" fill="#21221C"/>
<path d="M29.3567 33.2681L17.4077 35.375C16.7732 35.4869 16.3499 36.0943 16.4623 36.7316C16.5747 37.369 17.1802 37.795 17.8147 37.6831L29.7637 35.5762C30.3982 35.4643 30.8216 34.8569 30.7092 34.2195C30.5968 33.5822 29.9913 33.1562 29.3567 33.2681Z" fill="#21221C"/>
<path d="M34.7583 34.7895C35.3929 34.6776 35.8162 34.0702 35.7038 33.4329C35.5914 32.7955 34.9859 32.3695 34.3513 32.4814C33.7168 32.5933 33.2935 33.2007 33.4059 33.838C33.5183 34.4754 34.1238 34.9014 34.7583 34.7895Z" fill="#21221C"/>
</svg>
