<svg width="47" height="47" viewBox="0 0 47 47" fill="none" xmlns="http://www.w3.org/2000/svg">
<path d="M41.0489 22.8921L37.7082 3.94611C37.5958 3.30866 36.9881 2.88313 36.3506 2.99553L30.5034 4.02656L30.2863 2.79555C30.1739 2.15811 29.5662 1.73258 28.9287 1.84498C28.2913 1.95738 27.8658 2.5651 27.9781 3.20254L28.1952 4.43355L23.5789 5.24753L23.3619 4.01652C23.2495 3.37907 22.6417 2.95354 22.0043 3.06594C21.3669 3.17834 20.9413 3.78606 21.0537 4.42351L21.2708 5.65452L16.6545 6.46849L16.4374 5.23748C16.325 4.60004 15.7173 4.17451 15.0799 4.2869C14.4424 4.3993 14.0169 5.00703 14.1293 5.64447L14.3464 6.87548L9.73006 7.68946L9.513 6.45845C9.40061 5.821 8.79288 5.39547 8.15544 5.50787C7.51799 5.62027 7.09246 6.22799 7.20486 6.86543L7.42192 8.09644L1.57463 9.12748C0.937182 9.23988 0.51165 9.8476 0.624048 10.485L5.92846 40.5678C6.04086 41.2053 6.64858 41.6308 7.28602 41.5184L26.5055 38.1295C28.8617 40.582 32.358 41.8574 35.9516 41.2237C41.6787 40.2139 45.5166 34.7327 44.5068 29.0056C44.0717 26.5382 42.8061 24.4217 41.0489 22.8921ZM7.82891 10.4046L8.0324 11.5587C8.1448 12.1961 8.75252 12.6216 9.38997 12.5092C10.0274 12.3968 10.4529 11.7891 10.3405 11.1517L10.1371 9.9976L14.7533 9.18362L14.9568 10.3377C15.0692 10.9751 15.677 11.4007 16.3144 11.2883C16.9518 11.1759 17.3774 10.5682 17.265 9.93071L17.0615 8.77663L21.6778 7.96266L21.8813 9.11673C21.9937 9.75417 22.6014 10.1797 23.2388 10.0673C23.8763 9.95491 24.3018 9.34719 24.1894 8.70974L23.9859 7.55567L28.6022 6.7417L28.8057 7.89577C28.9181 8.53321 29.5258 8.95874 30.1633 8.84634C30.8007 8.73395 31.2262 8.12622 31.1138 7.48878L30.9103 6.33471L35.6036 5.50717L36.4175 10.1235L3.94966 15.8484L3.13569 11.2321L7.82891 10.4046ZM8.03311 39.0068L4.35665 18.1566L36.8245 12.4316L38.3684 21.1875C36.5217 20.3712 34.4222 20.0742 32.2887 20.4504C28.642 21.0935 25.7618 23.5495 24.4107 26.7273C24.2409 26.6761 24.057 26.6617 23.8701 26.6947L21.562 27.1017C20.9245 27.2141 20.499 27.8218 20.6114 28.4592C20.7238 29.0967 21.3315 29.5222 21.9689 29.4098L23.7172 29.1015C23.5862 29.8826 23.5422 30.6874 23.5946 31.5031L22.3759 31.7179C21.7385 31.8303 21.313 32.4381 21.4254 33.0755C21.5378 33.713 22.1455 34.1385 22.7829 34.0261L24.0016 33.8112C24.2313 34.5956 24.5477 35.3368 24.9382 36.026L8.03311 39.0068ZM35.5446 38.9156C31.09 39.701 26.8271 36.7161 26.0416 32.2615C25.2562 27.8069 28.2411 23.544 32.6957 22.7586C37.1503 21.9731 41.4132 24.958 42.1986 29.4126C42.9841 33.8672 39.9992 38.1301 35.5446 38.9156Z" fill="#21221C"/>
<path d="M38.5328 28.869L35.0706 29.4795L34.4601 26.0173C34.3477 25.3798 33.74 24.9543 33.1026 25.0667C32.4651 25.1791 32.0396 25.7868 32.152 26.4243L32.966 31.0406C33.0784 31.678 33.6861 32.1035 34.3235 31.9911L38.9398 31.1772C39.5773 31.0648 40.0028 30.457 39.8904 29.8196C39.778 29.1822 39.1703 28.7566 38.5328 28.869Z" fill="#21221C"/>
<path d="M12.9327 19.1036L10.6245 19.5106C9.98709 19.623 9.56155 20.2307 9.67395 20.8682C9.78635 21.5056 10.3941 21.9312 11.0315 21.8188L13.3397 21.4118C13.9771 21.2994 14.4026 20.6917 14.2902 20.0542C14.1778 19.4168 13.5701 18.9912 12.9327 19.1036Z" fill="#21221C"/>
<path d="M13.7466 23.7199L11.4385 24.1269C10.8011 24.2393 10.3755 24.847 10.4879 25.4845C10.6003 26.1219 11.208 26.5474 11.8455 26.435L14.1536 26.028C14.7911 25.9156 15.2166 25.3079 15.1042 24.6705C14.9918 24.033 14.3841 23.6075 13.7466 23.7199Z" fill="#21221C"/>
<path d="M14.5606 28.3362L12.2525 28.7432C11.615 28.8556 11.1895 29.4633 11.3019 30.1007C11.4143 30.7382 12.022 31.1637 12.6594 31.0513L14.9676 30.6443C15.605 30.5319 16.0306 29.9242 15.9182 29.2868C15.8058 28.6493 15.198 28.2238 14.5606 28.3362Z" fill="#21221C"/>
<path d="M20.3411 20.1772L22.6492 19.7702C23.2867 19.6578 23.7122 19.0501 23.5998 18.4127C23.4874 17.7752 22.8797 17.3497 22.2422 17.4621L19.9341 17.8691C19.2967 17.9815 18.8711 18.5892 18.9835 19.2266C19.0959 19.8641 19.7036 20.2896 20.3411 20.1772Z" fill="#21221C"/>
<path d="M21.1551 24.7935L23.4632 24.3865C24.1006 24.2741 24.5262 23.6664 24.4138 23.029C24.3014 22.3915 23.6937 21.966 23.0562 22.0784L20.7481 22.4854C20.1106 22.5978 19.6851 23.2055 19.7975 23.8429C19.9099 24.4804 20.5176 24.9059 21.1551 24.7935Z" fill="#21221C"/>
<path d="M15.3746 32.9525L13.0664 33.3595C12.429 33.4719 12.0034 34.0796 12.1158 34.717C12.2282 35.3545 12.836 35.78 13.4734 35.6676L15.7816 35.2606C16.419 35.1482 16.8445 34.5405 16.7321 33.9031C16.6197 33.2656 16.012 32.8401 15.3746 32.9525Z" fill="#21221C"/>
<path d="M29.5735 18.5493L31.8817 18.1423C32.5191 18.0299 32.9446 17.4222 32.8322 16.7847C32.7198 16.1473 32.1121 15.7218 31.4747 15.8342L29.1665 16.2411C28.5291 16.3535 28.1035 16.9613 28.2159 17.5987C28.3283 18.2362 28.9361 18.6617 29.5735 18.5493Z" fill="#21221C"/>
</svg>
