<svg width="29" height="44" viewBox="0 0 29 44" fill="none" xmlns="http://www.w3.org/2000/svg">
<path d="M17.8649 25.9109C18.0375 25.7817 18.1671 25.6188 18.2526 25.4397C22.6188 23.0164 24.7684 17.5959 23.8364 12.31C23.1617 8.48374 19.6691 1.5813 19.5207 1.28927C19.2689 0.793517 18.7076 0.521536 18.1423 0.621214L3.52348 3.19891C2.95809 3.2986 2.52377 3.74613 2.4566 4.29813C2.4171 4.62329 1.49592 12.304 2.1706 16.1303C3.10977 21.4566 7.01533 25.7806 11.9082 26.5585C12.0499 26.6975 12.2274 26.8062 12.4338 26.8687C13.4019 27.1615 14.1096 27.9458 14.2806 28.9154L15.6361 36.6031C15.8755 37.9606 14.9268 39.2667 13.5213 39.5145L10.9724 39.964C10.2686 40.0881 9.79514 40.7399 9.91501 41.4197C10.0349 42.0995 10.7027 42.5501 11.4065 42.426L24.1511 40.1788C24.8549 40.0547 25.3284 39.4029 25.2085 38.723C25.0886 38.0432 24.4208 37.5926 23.717 37.7167L21.1681 38.1662C19.7626 38.414 18.4244 37.5112 18.185 36.1536L16.8295 28.466C16.6585 27.4964 17.0553 26.5173 17.8649 25.9109ZM4.71952 15.6808C4.23562 12.9365 4.70134 7.63196 4.92244 5.4908L17.6117 3.25335C18.5516 5.18899 20.8031 10.0125 21.2875 12.7595C22.245 18.1898 19.3078 23.2628 14.74 24.0682C10.1722 24.8737 5.67702 21.1111 4.71952 15.6808Z" fill="#21221C"/>
</svg>
