<svg width="25" height="25" viewBox="0 0 25 25" fill="none" xmlns="http://www.w3.org/2000/svg">
<path d="M24.9317 7.35009C24.8731 6.02174 24.6583 5.10851 24.3506 4.31719C24.0331 3.47721 23.5447 2.72519 22.9049 2.10003C22.2797 1.46513 21.5228 0.971796 20.6925 0.659311C19.8966 0.351594 18.9881 0.136784 17.6598 0.0782168C16.3215 0.0146895 15.8967 0 12.5025 0C9.10824 0 8.68339 0.0146895 7.35008 0.0732567C6.02173 0.131824 5.1085 0.346825 4.31737 0.65435C3.47721 0.971796 2.72518 1.46017 2.10002 2.10003C1.46513 2.72519 0.971985 3.48217 0.659309 4.31242C0.351594 5.10851 0.136784 6.01678 0.0782167 7.34513C0.0146895 8.6834 0 9.10825 0 12.5025C0 15.8967 0.0146895 16.3216 0.0732566 17.6549C0.131824 18.9832 0.346824 19.8965 0.65454 20.6878C0.971985 21.5277 1.46513 22.2798 2.10002 22.9049C2.72518 23.5398 3.48217 24.0332 4.31241 24.3456C5.1085 24.6534 6.01677 24.8682 7.34531 24.9267C8.67843 24.9855 9.10347 25 12.4977 25C15.8919 25 16.3168 24.9855 17.6501 24.9267C18.9784 24.8682 19.8916 24.6534 20.6828 24.3456C22.3629 23.6961 23.6913 22.3677 24.3408 20.6878C24.6484 19.8917 24.8634 18.9832 24.9219 17.6549C24.9805 16.3216 24.9952 15.8967 24.9952 12.5025C24.9952 9.10825 24.9902 8.6834 24.9317 7.35009ZM22.6804 17.5572C22.6266 18.7781 22.4215 19.4375 22.2505 19.877C21.8305 20.9661 20.9661 21.8305 19.877 22.2506C19.4374 22.4215 18.7733 22.6266 17.5572 22.6802C16.2385 22.739 15.8431 22.7535 12.5074 22.7535C9.17177 22.7535 8.77133 22.739 7.45748 22.6802C6.23654 22.6266 5.57723 22.4215 5.13769 22.2506C4.59571 22.0503 4.10237 21.7328 3.70194 21.3177C3.28682 20.9123 2.96937 20.4239 2.76906 19.882C2.59813 19.4424 2.39305 18.7781 2.33944 17.5622C2.28068 16.2435 2.26619 15.8479 2.26619 12.5122C2.26619 9.17655 2.28068 8.77612 2.33944 7.46246C2.39305 6.24151 2.59813 5.5822 2.76906 5.14266C2.96937 4.60048 3.28682 4.10734 3.7069 3.70671C4.1121 3.29159 4.60048 2.97415 5.14265 2.77403C5.58219 2.60309 6.24646 2.39801 7.46244 2.34422C8.78106 2.28565 9.17673 2.27096 12.5122 2.27096C15.8528 2.27096 16.2483 2.28565 17.5621 2.34422C18.7831 2.39801 19.4424 2.60309 19.8819 2.77403C20.4239 2.97415 20.9172 3.29159 21.3177 3.70671C21.7328 4.11211 22.0502 4.60048 22.2505 5.14266C22.4215 5.5822 22.6266 6.24628 22.6804 7.46246C22.7389 8.78108 22.7536 9.17655 22.7536 12.5122C22.7536 15.8479 22.7389 16.2386 22.6804 17.5572Z" fill="#21221C"/>
<path d="M12.5023 6.08032C8.95674 6.08032 6.08008 8.95679 6.08008 12.5025C6.08008 16.0482 8.95674 18.9247 12.5023 18.9247C16.048 18.9247 18.9244 16.0482 18.9244 12.5025C18.9244 8.95679 16.048 6.08032 12.5023 6.08032ZM12.5023 16.6684C10.2021 16.6684 8.33635 14.8028 8.33635 12.5025C8.33635 10.2022 10.2021 8.33659 12.5023 8.33659C14.8026 8.33659 16.6682 10.2022 16.6682 12.5025C16.6682 14.8028 14.8026 16.6684 12.5023 16.6684Z" fill="#21221C"/>
<path d="M20.6785 5.82644C20.6785 6.65439 20.0071 7.32572 19.179 7.32572C18.351 7.32572 17.6797 6.65439 17.6797 5.82644C17.6797 4.99829 18.351 4.32715 19.179 4.32715C20.0071 4.32715 20.6785 4.99829 20.6785 5.82644Z" fill="#21221C"/>
</svg>
