<svg width="30" height="32" viewBox="0 0 30 32" fill="none" xmlns="http://www.w3.org/2000/svg">
<path d="M29.9949 11.2942C29.9951 8.28882 28.8284 5.45581 26.71 3.31689C24.5916 1.17798 21.7857 0 18.8089 0H12.1811C12.1809 0 12.1809 0 12.1809 0C9.20453 0 6.39842 1.17798 4.28023 3.31665C2.16181 5.45581 0.995117 8.28882 0.995117 11.2942V16.5544C0.995117 18.8821 1.69828 21.1208 3.02867 23.0293C4.20237 24.7129 5.78086 26.0281 7.62121 26.8618V29.8833C7.62121 31.4456 8.48758 32 9.22943 32C9.75946 32 10.2895 31.7358 10.8055 31.2151L14.1395 27.8489L18.8091 27.8486C21.7857 27.8486 24.5916 26.6707 26.71 24.532C28.8284 22.3931 29.9951 19.5598 29.9951 16.5544L29.9949 11.2942ZM18.8091 25.9736L13.755 25.9739C13.5086 25.9739 13.2726 26.0725 13.0985 26.2483L9.49251 29.8892C9.48792 29.894 9.48308 29.8987 9.47824 29.9033C9.47824 29.8967 9.47824 29.8899 9.47824 29.8833V26.2361C9.47824 25.8472 9.24055 25.4988 8.88075 25.3601C5.27501 23.9709 2.8524 20.4321 2.8524 16.5544V11.2942C2.8524 8.78955 3.82589 6.42725 5.59346 4.64233C7.36103 2.85791 9.70046 1.875 12.1811 1.875H18.8089C21.2895 1.875 23.6292 2.85791 25.3968 4.64258C27.1646 6.42749 28.1381 8.78979 28.1378 11.2942L28.1381 16.5544C28.1378 21.7483 23.953 25.9736 18.8091 25.9736Z" fill="#21221C"/>
<path d="M17.9636 15.3334C17.6012 14.9672 17.0134 14.9672 16.6506 15.3334L15.9006 16.0905L12.9941 13.1562L13.7442 12.3991C13.9183 12.2233 14.0162 11.9848 14.0162 11.736C14.0162 11.4875 13.9183 11.249 13.7442 11.0732L10.2279 7.52289C10.0538 7.34711 9.81782 7.24823 9.57142 7.24823C9.32527 7.24823 9.08903 7.34711 8.91493 7.52289L6.45339 10.0082C5.12227 11.3522 5.12227 13.5395 6.45363 14.8842L14.1891 22.695C14.8323 23.3442 15.69 23.7016 16.6037 23.7016C17.5177 23.7016 18.3754 23.3442 19.0186 22.695L21.4802 20.2099C21.6543 20.0339 21.7522 19.7956 21.7522 19.5468C21.7522 19.2983 21.6543 19.0598 21.4802 18.884L17.9636 15.3334ZM17.7054 21.3688C17.413 21.664 17.0218 21.8266 16.6037 21.8266C16.1857 21.8266 15.7944 21.664 15.5021 21.3688L7.76685 13.5583C7.15945 12.945 7.15921 11.947 7.76661 11.3339L9.57142 9.51141L11.7745 11.736L11.0244 12.4931C10.8503 12.6689 10.7524 12.9074 10.7524 13.1559C10.7524 13.4047 10.8503 13.643 11.0244 13.819L15.2438 18.0793C15.6065 18.4453 16.1944 18.4455 16.5571 18.0793L17.3071 17.3222L19.5102 19.5466L17.7054 21.3688Z" fill="#21221C"/>
<path d="M15.7198 4.14691C15.2069 4.14691 14.7913 4.56659 14.7913 5.08441C14.7913 5.60199 15.2069 6.02191 15.7198 6.02191C17.8447 6.02191 19.8427 6.85736 21.3453 8.37469C22.8481 9.89178 23.6755 11.9089 23.6755 14.0546C23.6755 14.5722 24.0912 14.9921 24.6041 14.9921C25.1167 14.9921 25.5326 14.5724 25.5326 14.0546C25.5326 11.4081 24.5119 8.9201 22.6585 7.04877C20.8051 5.17743 18.3409 4.14691 15.7198 4.14691Z" fill="#21221C"/>
<path d="M19.6974 14.0547C19.6974 14.5723 20.1133 14.9922 20.6259 14.9922C21.1388 14.9922 21.5545 14.5723 21.5545 14.0547C21.5545 10.8064 18.9369 8.16382 15.7198 8.16382C15.2069 8.16382 14.7913 8.5835 14.7913 9.10132C14.7913 9.61914 15.2069 10.0388 15.7198 10.0388C17.9132 10.0388 19.6974 11.8403 19.6974 14.0547Z" fill="#21221C"/>
</svg>
