<svg width="35" height="20" viewBox="0 0 35 20" fill="none" xmlns="http://www.w3.org/2000/svg">
<path d="M31.3254 13.2633L31.307 13.2463C31.0167 12.9809 30.1275 12.1235 29.8276 11.7489C29.4756 11.2814 29.5568 10.9751 29.8206 10.5161C30.1539 9.93606 30.8219 9.04636 31.5288 8.10424C33.7928 5.08771 35.2545 2.99941 34.9536 1.51608L34.7915 0.723778L26.4303 0.727376C26.401 0.805501 25.9646 2.70439 24.1234 5.93783C22.7883 8.28234 21.9126 9.01886 21.6041 9.1489L21.5564 9.13451C21.456 9.01167 21.2807 8.68015 21.2086 7.82567C21.1333 6.93057 21.2 5.84685 21.2646 4.79885C21.3401 3.56993 21.4052 2.50857 21.2493 1.74916L20.9953 0.51202C20.6885 0.463449 19.565 0.0340203 16.4348 0.00138275C13.7249 -0.0261151 12.9288 0.361681 12.5379 0.703476L12.4157 0.89232C12.1113 1.3627 12.2528 1.9913 12.7292 2.28601L12.8792 2.37879C13.5013 2.58618 13.7078 2.82543 13.8772 4.01144C13.9877 4.78446 14.0455 6.08354 13.9262 7.24333C13.7547 8.9063 13.3436 9.21572 13.3223 9.23217C13.2515 9.20827 12.651 8.94794 11.6084 6.7643C10.8852 5.24987 10.2513 3.4584 9.78798 2.15032C9.25777 0.652336 9.35323 0.971259 9.08423 0.263511L0.995117 0.263254L1.51859 1.60474C3.70091 7.20272 5.70322 11.5744 8.38281 14.7143C11.3433 18.1833 15.0227 19.9997 19.9787 19.9997H20.9748V19.0129C20.9748 18.0903 21.0519 17.426 21.2171 16.9223C21.318 16.6155 21.4521 16.3618 21.593 16.0958C21.8021 15.7042 22.0065 15.5364 22.118 15.5114C22.2192 15.4886 22.3971 15.5621 22.5943 15.7078C23.1603 16.1259 23.6096 16.6753 24.0853 17.2572C24.7717 18.0967 25.4814 18.9646 26.6074 19.5328C27.2227 19.8432 28.3506 20 28.9713 20C29.1355 20 34.9879 19.9997 34.9951 19.9997L34.9523 18.9723C34.8885 17.436 33.668 15.515 31.3254 13.2633ZM29.01 18.0261H28.9939C28.5659 18.033 27.7491 17.894 27.5114 17.7742C26.7628 17.3964 26.2396 16.7563 25.6334 16.0151C25.1014 15.3642 24.5512 14.6911 23.7852 14.1255C23.1657 13.6678 22.6031 13.5339 22.1564 13.5339C21.9779 13.5339 21.8176 13.5552 21.6801 13.5861C21.1616 13.7017 20.42 14.0713 19.8304 15.1761C19.6641 15.4904 19.4755 15.8463 19.3227 16.312C19.1627 16.7992 19.0631 17.3407 19.0156 17.9993C15.2808 17.7891 12.3664 16.3253 9.90419 13.4401C7.61499 10.7574 5.81398 7.0051 3.90662 2.23616C4.04462 2.23616 7.50267 2.23667 7.70682 2.23667C7.76933 2.41065 7.83678 2.60134 7.90837 2.80333C8.40771 4.21446 9.09175 6.14676 9.89771 7.79457C11.0518 10.1542 12.1057 11.2066 13.3148 11.2066C13.9184 11.2066 14.4598 10.9532 14.8802 10.4734C15.4797 9.78957 15.8278 8.66088 15.9446 7.02258C16.0367 5.73069 15.951 4.44395 15.8499 3.73492C15.7664 3.15155 15.6473 2.53915 15.3568 1.99048C16.5949 1.93522 18.2527 2.0226 19.303 2.17191C19.3985 2.68692 19.3362 3.6992 19.276 4.67858C19.1305 7.04442 18.9803 9.48581 20.2444 10.6281C20.4667 10.8291 20.7025 10.9368 20.7092 10.9411L21.3525 11.1367C21.6008 11.0609 23.0386 11.7836 25.7613 7.07629C26.6336 5.56802 27.4458 3.83 27.8832 2.69488C28.8974 2.69283 32.3529 2.69668 32.7588 2.6972C32.1837 3.95104 30.8209 5.73943 29.9301 6.92646C29.1534 7.9611 28.4829 8.85465 28.0894 9.53927C27.3584 10.8111 27.4814 11.9447 28.2427 12.9446L28.2546 12.96C28.6795 13.4959 29.7288 14.4878 29.9464 14.6878C31.5231 16.2043 32.2828 17.2936 32.6444 18.0258L29.01 18.0261Z" fill="#21221C"/>
</svg>
