<svg width="110" height="110" viewBox="0 0 110 110" fill="none" xmlns="http://www.w3.org/2000/svg">
<path d="M98.4562 23.6938C97.6186 22.854 96.2586 22.854 95.4188 23.6938C94.5811 24.5315 94.5811 25.8936 95.4188 26.7313C96.2586 27.5711 97.6186 27.5711 98.4562 26.7313C99.2961 25.8936 99.2961 24.5317 98.4562 23.6938Z" fill="#E3C597"/>
<path d="M106.245 91.219C103.867 89.0699 68.0584 56.7045 65.5502 54.4373L72.8871 46.3095C80.7939 50.2575 90.3725 48.7611 96.6761 42.4585C102.981 36.1539 107.418 28.8497 109.17 21.8911C111.004 14.6065 109.775 8.35539 105.71 4.2897C101.644 0.224447 95.3923 -1.00445 88.1069 0.830304C81.148 2.58278 73.8439 7.02014 67.5408 13.3243C61.2702 19.5897 59.72 29.1685 63.6875 37.1089L55.0165 44.9352L48.0315 38.6749C49.9469 33.2638 48.6182 27.1666 44.4764 23.0255C41.7795 20.3514 25.1789 3.89117 21.8894 0.629426C21.0472 -0.205883 19.6871 -0.200297 18.8513 0.642317C18.016 1.4845 18.0215 2.84489 18.8642 3.6802L36.8691 21.533L33.8448 24.5567L15.813 6.70346C14.9699 5.8688 13.6096 5.87546 12.7749 6.71829C11.94 7.56133 11.9468 8.9215 12.7897 9.75617L30.8063 27.5944L27.7677 30.6322L9.73531 12.7801C8.89199 11.9458 7.53215 11.9523 6.69699 12.7951C5.86227 13.6382 5.86893 14.9985 6.71204 15.8332L24.729 33.6699L21.6786 36.7198L3.66083 18.8558C2.81859 18.0205 1.4581 18.0265 0.622518 18.8689C-0.212422 19.7113 -0.206836 21.0715 0.635409 21.9068C0.639277 21.9107 0.64164 21.9131 0.643359 21.9148C0.644004 21.9154 0.644433 21.9158 0.645078 21.9163C0.646582 21.9178 0.647012 21.918 0.646152 21.9173C0.795264 22.0652 2.77475 24.028 23.2164 44.2969C27.5026 48.5828 33.6398 49.6897 38.8611 47.8502L44.6423 54.2987L3.74849 91.2098C-1.01793 95.2759 -1.24568 102.5 3.12347 106.868C7.51604 111.26 14.7348 110.988 18.7828 106.243L55.192 65.9107C55.7363 66.5202 91.1737 106.214 91.2051 106.249C95.2434 110.987 102.465 111.281 106.869 106.877C111.246 102.501 111.002 95.2776 106.245 91.219ZM70.5783 16.3624C76.3414 10.5986 82.9393 6.56188 89.1562 4.99632C94.9168 3.54506 99.7169 4.37328 102.671 7.32758C105.626 10.2817 106.454 15.0813 105.003 20.8421C103.438 27.0588 99.4015 33.6566 93.6375 39.4202C87.4449 45.6128 77.613 45.7976 71.1926 39.9998C64.2657 33.7273 63.9243 23.0111 70.5783 16.3624ZM26.2487 41.2534L24.729 39.7454L39.9195 24.558L41.4445 26.0703C45.6341 30.2595 45.65 37.0541 41.443 41.2609C37.2744 45.4377 30.4777 45.4818 26.2487 41.2534ZM42.7704 45.7744C43.372 45.329 43.9444 44.8361 44.4829 44.2969C45.0191 43.7606 45.509 43.1874 45.9549 42.5835L51.8089 47.8302L47.8319 51.42L42.7704 45.7744ZM15.5724 103.387C15.5575 103.404 15.5425 103.421 15.5279 103.438C13.1152 106.286 8.80153 106.47 6.16157 103.83C3.52934 101.198 3.69714 96.8842 6.55325 94.464C6.57044 94.4496 6.58742 94.4346 6.60396 94.4197L8.38449 92.8127L17.1795 101.607L15.5724 103.387ZM20.0625 98.4137L11.5781 89.9299L14.7718 87.0474L22.9452 95.2202L20.0625 98.4137ZM25.828 92.0268L17.9655 84.1649L66.0392 40.7737C66.7272 41.63 67.4845 42.4381 68.3113 43.1864C68.6059 43.4523 68.9118 43.7074 69.2227 43.9568L25.828 92.0268ZM58.0881 62.7027L62.6711 57.626L92.6576 84.7292L84.7099 92.5203L58.0881 62.7027ZM90.4449 98.9433L87.5749 95.7288L95.8514 87.6154L98.9611 90.4262L90.4449 98.9433ZM103.831 103.839C101.408 106.262 97.2224 106.538 94.4286 103.408L93.3101 102.154L102.152 93.3109L103.388 94.4279C103.405 94.4432 103.422 94.4582 103.439 94.473C106.285 96.8833 106.473 101.197 103.831 103.839Z" fill="#E3C597"/>
<path d="M93.2837 30.1263C92.3729 29.3656 91.0177 29.4872 90.2576 30.3983C89.4149 31.4075 88.5078 32.3981 87.56 33.3438C85.0232 35.8818 81.1227 36.3413 78.074 34.4604C77.0642 33.8373 75.7409 34.151 75.1176 35.1608C74.4947 36.1703 74.8082 37.494 75.818 38.117C80.5711 41.0494 86.649 40.3335 90.5973 36.3828C91.6346 35.3479 92.6303 34.2606 93.5557 33.1524C94.3158 32.2417 94.194 30.8869 93.2837 30.1263Z" fill="#E3C597"/>
</svg>
