<svg width="111" height="83" viewBox="0 0 111 83" fill="none" xmlns="http://www.w3.org/2000/svg">
<path d="M46.9921 78.6926C46.426 78.6926 45.8716 78.9228 45.4718 79.3226C45.072 79.7224 44.8418 80.2777 44.8418 80.843C44.8418 81.4083 45.072 81.9635 45.4718 82.3633C45.8716 82.7632 46.426 82.9933 46.9921 82.9933C47.5574 82.9933 48.1118 82.7632 48.5125 82.3633C48.9123 81.9635 49.1425 81.4108 49.1425 80.843C49.1425 80.2777 48.9123 79.7224 48.5125 79.3226C48.1118 78.9228 47.5574 78.6926 46.9921 78.6926Z" fill="#E3C597"/>
<path d="M89.8215 42.5911L84.8102 19.9512C86.1625 19.7681 87.3553 19.0801 88.1944 18.0839C89.1848 18.703 90.3532 19.0625 91.6047 19.0625H95.9054C97.0932 19.0625 98.0558 18.0999 98.0558 16.9121V8.31075C98.0558 7.12302 97.0932 6.16041 95.9054 6.16041H91.6047C90.3162 6.16041 89.115 6.54176 88.1062 7.1961C87.1218 6.08313 85.6846 5.37923 84.0853 5.37923H71.3915C69.1109 5.37923 67.1588 6.80971 66.3819 8.81978H61.2849C58.2021 8.81978 55.694 11.328 55.694 14.4107C55.694 17.4934 58.2021 20.0016 61.2849 20.0016H72.3533V24.335C72.3533 25.5228 73.3159 26.4854 74.5036 26.4854C75.6913 26.4854 76.654 25.5228 76.654 24.335V20.0016H80.4171L85.8148 44.3904L75.5989 62.586C74.4826 64.5667 72.3776 65.7972 70.1038 65.7972H44.6012C43.5336 56.8439 35.8999 49.8779 26.6643 49.8779C22.5778 49.8779 18.7223 51.2093 15.5144 53.7276C15.5102 53.7309 15.506 53.7343 15.5018 53.7377C11.6824 56.7414 9.28177 61.0522 8.72234 65.7972H4.30573C4.58628 50.3383 17.249 37.8494 32.7726 37.8494H48.0266C49.2303 37.8494 50.2106 38.8297 50.2106 40.0342V59.3462C50.2106 60.5339 51.1732 61.4965 52.3609 61.4965H63.8031C68.4709 61.4965 72.7724 58.9581 75.0286 54.8733C76.0727 52.9833 76.6262 50.8431 76.6279 48.6852L76.6388 41.5412C76.6405 40.3534 75.6787 39.3891 74.491 39.3875C74.4902 39.3875 74.4893 39.3875 74.4885 39.3875C73.3024 39.3875 72.3398 40.3484 72.3381 41.5344L72.3272 48.6801C72.3264 50.1148 71.9585 51.5377 71.2646 52.7935C69.7645 55.5083 66.9052 57.195 63.8031 57.195H54.5113V40.0334C54.5113 38.9322 54.2341 37.894 53.7477 36.9843C55.6797 35.8679 56.9833 33.7814 56.9833 31.3951C56.9833 27.8377 54.0888 24.944 50.5323 24.944H42.6835C41.9292 24.944 41.206 25.0751 40.5332 25.3136V6.45104C40.5332 2.89373 37.6386 0 34.0821 0H20.2099C10.1537 0 1.79084 7.38341 0.253674 17.0129C0.188995 17.2179 0.153716 17.4354 0.153716 17.6614C0.153716 17.6748 0.155396 17.6874 0.155396 17.7C0.0529187 18.5232 0 19.3607 0 20.2099V31.3959C0 34.6256 2.38638 37.3085 5.48842 37.7747L10.2503 42.5365C3.94118 48.5138 0 56.9657 0 66.3222V67.9476C0 69.1353 0.962616 70.0979 2.15035 70.0979H14.2351C14.2074 70.2365 14.1923 70.381 14.1923 70.528C14.1923 73.6485 15.3473 76.5036 17.249 78.6926H2.15035C0.962616 78.6926 0 79.656 0 80.8429C0 82.0307 0.962616 82.9933 2.15035 82.9933H26.4157C26.4988 82.9958 26.5811 83 26.6643 83C33.5412 83 39.1363 77.4049 39.1363 70.528C39.1363 70.381 39.1212 70.2365 39.0935 70.0979H70.1038C73.4898 70.0979 76.654 68.4751 78.6371 65.7905H81.3604C80.748 67.2806 80.4229 68.8867 80.4229 70.528C80.4229 73.6485 81.5779 76.5036 83.4796 78.6926H55.5932C54.4054 78.6926 53.4428 79.656 53.4428 80.8429C53.4428 82.0307 54.4054 82.9933 55.5932 82.9933H92.6463C92.7295 82.9958 92.8118 83 92.895 83C99.7719 83 105.367 77.4049 105.367 70.528C105.367 68.8867 105.042 67.2806 104.43 65.7905H107.947C109.135 65.7905 110.098 64.8279 110.098 63.6402C110.098 52.2895 101.072 43.0069 89.8215 42.5911ZM42.6835 29.2455H50.5323C51.7175 29.2455 52.6826 30.2098 52.6826 31.3959C52.6826 32.5811 51.7175 33.5462 50.5323 33.5462H42.6835C41.4975 33.5462 40.5332 32.5811 40.5332 31.3959C40.5332 30.2098 41.4975 29.2455 42.6835 29.2455ZM4.30069 20.2099C4.30069 20.0772 4.30741 19.9453 4.31077 19.8126H27.8411C29.0288 19.8126 29.9914 18.85 29.9914 17.6622C29.9914 16.4745 29.0288 15.5119 27.8411 15.5119H5.00963C7.01886 9.02557 13.0726 4.30153 20.2099 4.30153H34.0813C35.2674 4.30153 36.2317 5.26583 36.2317 6.45188V31.3959C36.2317 32.5811 35.2674 33.5462 34.0813 33.5462H6.45188C6.45188 33.5462 6.45104 33.5462 6.4502 33.5462C5.26499 33.5462 4.30069 32.5811 4.30069 31.3959V20.2099ZM11.6429 37.8469H16.5635C15.5304 38.4366 14.5333 39.0825 13.5741 39.778L11.6429 37.8469ZM34.8356 70.528C34.8356 75.0059 31.2145 78.6523 26.7474 78.6968C26.7197 78.6959 26.692 78.6926 26.6643 78.6926H26.4165C22.0251 78.5607 18.493 74.9505 18.493 70.528C18.493 70.381 18.4779 70.2365 18.4501 70.0979H34.8784C34.8507 70.2365 34.8356 70.381 34.8356 70.528ZM13.0617 65.7972C13.5942 62.381 15.3884 59.295 18.1595 57.1186C18.1662 57.1144 18.1721 57.1085 18.1788 57.1043C20.6198 55.1908 23.5538 54.1786 26.6643 54.1786C33.5252 54.1786 39.2295 59.2227 40.2652 65.7972H13.0617ZM91.6047 10.4611H93.7551V14.7618H91.6047C90.4187 14.7618 89.4544 13.7975 89.4544 12.6114C89.4544 11.4262 90.4187 10.4611 91.6047 10.4611ZM59.9947 14.4107C59.9947 13.6992 60.5734 13.1205 61.2849 13.1205H66.0223V14.6324C66.0223 14.9987 66.0593 15.3557 66.129 15.7009H61.2849C60.5734 15.7009 59.9947 15.1221 59.9947 14.4107ZM74.5036 15.7009H71.3915C70.8027 15.7009 70.323 15.2221 70.323 14.6324V10.7484C70.323 10.1595 70.8027 9.67992 71.3915 9.67992H84.0853C84.6741 9.67992 85.1537 10.1595 85.1537 10.7484V14.6324C85.1537 15.2221 84.6741 15.7009 84.0853 15.7009H74.5036ZM101.066 70.528C101.066 75.0059 97.4451 78.6523 92.9781 78.6968C92.9504 78.6959 92.9227 78.6926 92.895 78.6926H92.6472C88.2557 78.5607 84.7236 74.9505 84.7236 70.528C84.7236 68.8195 85.2562 67.1681 86.2373 65.7905H99.5526C100.534 67.1681 101.066 68.8195 101.066 70.528ZM81.1462 61.4898L89.346 46.8851C97.7198 47.0388 104.614 53.3597 105.659 61.4898H81.1462Z" fill="#E3C597"/>
<path d="M74.5037 35.0868C75.6914 35.0868 76.654 34.1242 76.654 32.9365C76.654 31.7487 75.6914 30.7861 74.5037 30.7861H74.4961C73.3084 30.7861 72.3491 31.7487 72.3491 32.9365C72.3491 34.1242 73.3159 35.0868 74.5037 35.0868Z" fill="#E3C597"/>
</svg>
