<svg width="110" height="110" viewBox="0 0 110 110" fill="none" xmlns="http://www.w3.org/2000/svg">
<path d="M15.0656 97.3441L15.0458 97.3291C14.104 96.6079 12.7556 96.7862 12.0337 97.7283C11.3123 98.6701 11.491 100.019 12.4327 100.74L12.4525 100.755C12.8422 101.054 13.3015 101.198 13.7574 101.198C14.403 101.198 15.0415 100.908 15.4644 100.356C16.1862 99.4142 16.0075 98.0658 15.0656 97.3441Z" fill="white"/>
<path d="M15.0656 79.7272L15.0458 79.7122C14.104 78.9909 12.7556 79.1692 12.0337 80.1113C11.3123 81.0532 11.491 82.4018 12.4327 83.1234L12.4525 83.1385C12.8422 83.4371 13.3015 83.5815 13.7574 83.5815C14.403 83.5815 15.0415 83.2914 15.4644 82.7393C16.1862 81.7972 16.0075 80.4489 15.0656 79.7272Z" fill="white"/>
<path d="M15.0656 62.11L15.0458 62.095C14.104 61.3737 12.7556 61.5521 12.0337 62.4941C11.3123 63.436 11.491 64.7846 12.4327 65.5062L12.4525 65.5213C12.8422 65.8199 13.3015 65.9643 13.7574 65.9643C14.403 65.9643 15.0415 65.6743 15.4644 65.1221C16.1862 64.18 16.0075 62.8317 15.0656 62.11Z" fill="white"/>
<path d="M97.5463 97.3376L97.5263 97.3225C96.5806 96.6058 95.2331 96.7915 94.5164 97.7372C93.7997 98.6827 93.9853 100.03 94.931 100.747L94.951 100.762C95.3392 101.056 95.7949 101.199 96.247 101.199C96.8964 101.199 97.5384 100.905 97.961 100.348C98.6777 99.402 98.4919 98.0543 97.5463 97.3376Z" fill="white"/>
<path d="M97.5467 79.7206L97.5267 79.7056C96.5809 78.9889 95.2334 79.1745 94.5167 80.1202C93.8002 81.0656 93.9858 82.4133 94.9314 83.13L94.9514 83.145C95.3396 83.4392 95.7953 83.5814 96.2473 83.5814C96.8968 83.5814 97.5387 83.2881 97.9613 82.7306C98.678 81.7851 98.4924 80.4374 97.5467 79.7206Z" fill="white"/>
<path d="M97.5463 62.1035L97.5263 62.0884C96.5805 61.3717 95.233 61.5573 94.5163 62.5031C93.7996 63.4488 93.9854 64.7961 94.931 65.5128L94.951 65.5279C95.3392 65.822 95.7949 65.9642 96.2469 65.9642C96.8964 65.9642 97.5383 65.6709 97.9609 65.1134C98.6776 64.1679 98.492 62.8202 97.5463 62.1035Z" fill="white"/>
<path d="M79.38 70.4688H79.3521C78.1657 70.4688 77.2036 71.4306 77.2036 72.6172C77.2036 73.8038 78.1655 74.7656 79.3521 74.7656H79.38C80.5663 74.7656 81.5284 73.8038 81.5284 72.6172C81.5284 71.4306 80.5663 70.4688 79.38 70.4688Z" fill="white"/>
<path d="M30.65 88.0859H30.6221C29.4357 88.0859 28.4736 89.0478 28.4736 90.2344C28.4736 91.421 29.4357 92.3828 30.6221 92.3828H30.65C31.8364 92.3828 32.7984 91.421 32.7984 90.2344C32.7984 89.0478 31.8366 88.0859 30.65 88.0859Z" fill="white"/>
<path d="M17.3563 39.787C16.9567 39.3874 16.4024 39.1575 15.8374 39.1575C15.2724 39.1575 14.7181 39.3874 14.3185 39.787C13.9191 40.1866 13.689 40.7409 13.689 41.3081C13.689 41.8731 13.9188 42.4252 14.3185 42.8249C14.7181 43.2266 15.2704 43.4543 15.8374 43.4543C16.4024 43.4543 16.9567 43.2266 17.3563 42.8249C17.7557 42.4252 17.9858 41.8731 17.9858 41.3081C17.9858 40.7409 17.756 40.1887 17.3563 39.787Z" fill="white"/>
<path d="M107.852 52.8516H98.9282C102.768 50.643 105.361 46.5016 105.361 41.7633C105.361 36.8442 102.57 32.4655 98.3183 30.3349C99.0518 28.7042 99.4323 26.9332 99.4323 25.1038C99.4323 18.054 93.6968 12.3183 86.6467 12.3183C84.4239 12.3183 82.2892 12.879 80.3868 13.9522C77.8907 12.193 74.9059 11.2393 71.8244 11.2393C71.6154 11.2393 71.408 11.2466 71.2009 11.2552C68.9311 4.63848 62.6018 0.0103125 55.4733 0.0103125C49.0452 0.0103125 43.2285 3.73334 40.4879 9.43809C39.9738 9.39039 39.4573 9.36633 38.9413 9.36633C32.1855 9.36633 26.1854 13.446 23.6236 19.5293C23.169 19.3905 22.7064 19.2693 22.237 19.1643C22.4832 16.4184 23.3542 14.3133 24.8402 12.8979C26.1347 11.6649 27.4349 11.4095 27.4897 11.3992L27.4598 11.4041L27.4594 11.4018C27.9136 11.3349 28.3435 11.1255 28.6698 10.7976C29.0692 10.398 29.2993 9.84586 29.2993 9.28082C29.2993 8.71363 29.0694 8.16148 28.6698 7.75973C28.2702 7.36012 27.7159 7.13023 27.1509 7.13023C27.0304 7.13023 26.9107 7.14291 26.7925 7.16311L26.7919 7.15945C25.5161 7.36033 23.7714 8.07533 22.1622 9.5281V2.14844C22.1622 0.961856 21.2001 0 20.0138 0H14.8575C13.6712 0 12.7091 0.961856 12.7091 2.14844V10.1817C10.2375 7.15258 7.56938 5.38184 7.36248 5.2467C6.37012 4.59937 5.04281 4.8791 4.39377 5.86996C3.74451 6.86104 4.02187 8.19199 5.01145 8.84318C5.08256 8.8898 11.5827 13.2425 12.5484 19.5042C5.27828 21.688 0 28.0777 0 35.6026C0 38.729 1.78299 46.2361 3.53289 52.8516H2.14844C0.96207 52.8516 0 53.8134 0 55V107.852C0 109.038 0.96207 110 2.14844 110H107.852C109.038 110 110 109.038 110 107.852V55C110 53.8134 109.038 52.8516 107.852 52.8516ZM38.9413 13.6632C39.7678 13.6632 40.5954 13.7459 41.4017 13.9092C42.451 14.1215 43.4962 13.5296 43.8533 12.5202C45.592 7.60783 50.2616 4.30719 55.4733 4.30719C60.5522 4.30719 65.0848 7.47377 66.9245 12.0721C61.1213 14.1026 56.9461 19.6298 56.9461 26.1173C56.9461 27.3038 57.9081 28.2657 59.0945 28.2657C60.2809 28.2657 61.2429 27.3038 61.2429 26.1173C61.2429 20.2828 65.9897 15.5362 71.8242 15.5362C74.4116 15.5362 76.9033 16.4822 78.8399 18.2001C79.6037 18.8775 80.7391 18.9237 81.5555 18.3109C83.033 17.2015 84.7935 16.6152 86.6463 16.6152C91.3269 16.6152 95.135 20.4233 95.135 25.1038C95.135 26.944 94.556 28.6947 93.46 30.1664C93.0316 30.742 92.9186 31.4937 93.1595 32.1698C93.4003 32.846 93.9623 33.3573 94.6584 33.5328C98.4298 34.4837 101.064 37.8681 101.064 41.7633C101.064 46.4438 97.2557 50.252 92.5751 50.252C92.0419 50.252 91.5005 50.2 90.9657 50.0975C89.9244 49.8972 88.8933 50.4876 88.5371 51.4862C88.3689 51.9582 88.156 52.4152 87.9057 52.8516H85.1935L93.9911 40.2402C94.3218 39.7663 94.4475 39.1789 94.3398 38.6111C94.2322 38.0432 93.9003 37.5427 93.4192 37.2225L87.1554 33.0541C86.6675 32.7293 86.0677 32.6178 85.496 32.7461C84.9241 32.8741 84.4291 33.2301 84.1262 33.732L80.9939 38.9183L83.5579 25.9484C83.7865 24.7906 83.0388 23.665 81.883 23.4274L76.4163 22.3031C75.8514 22.1867 75.2632 22.3027 74.7845 22.6245C74.3059 22.9464 73.9767 23.4472 73.8712 24.0142L73.1698 27.7814H68.156C66.9696 27.7814 66.0075 28.7433 66.0075 29.9299V42.2929C64.5797 34.9819 58.1286 29.4465 50.4062 29.4465C46.9264 29.4465 43.6212 30.5506 40.8485 32.6395C38.5619 34.3619 36.766 36.7063 35.6853 39.342C35.959 37.7285 36.094 36.491 36.094 35.6028C36.094 32.6893 35.3027 29.9456 33.9112 27.5501C35.0399 24.4789 37.9745 22.3925 41.2938 22.3925C41.8213 22.3925 42.3498 22.4456 42.865 22.55C43.9149 22.7636 44.9616 22.1699 45.3181 21.1595C45.7791 19.8537 46.5813 18.6856 47.6384 17.7815C48.5399 17.0103 48.6456 15.6539 47.8743 14.7522C47.1032 13.8505 45.7471 13.7451 44.845 14.5161C43.6646 15.5259 42.6901 16.7501 41.9719 18.1146C41.7461 18.1019 41.5198 18.0956 41.294 18.0956C37.0178 18.0956 33.1549 20.3343 30.9755 23.826C29.955 22.8435 28.8095 21.9766 27.5614 21.2483C29.4478 16.7103 33.9122 13.6632 38.9413 13.6632ZM78.5516 51.2735L86.6439 37.8748L89.2106 39.583L79.9548 52.8516H78.2397L78.5516 51.2735ZM75.8641 42.7103V36.7447C75.8755 36.6996 75.888 36.6549 75.8966 36.6085L77.6946 26.9526L78.9289 27.2065L75.8641 42.7103ZM70.2889 49.1247C70.2982 49.0432 70.3044 48.9607 70.3044 48.877V32.0781H71.5675V52.8516H70.8894C70.8952 52.7171 70.8984 52.5824 70.8984 52.4472C70.8984 51.2761 70.681 50.1563 70.2889 49.1247ZM40.8203 39.1016C40.7567 39.1016 40.6942 39.1056 40.6306 39.1063C42.7311 35.845 46.4118 33.7431 50.406 33.7431C56.0826 33.7431 60.8169 37.8426 61.812 43.2358C58.8393 43.2569 56.2048 44.7528 54.5746 47.0415C51.8201 42.2995 46.6883 39.1016 40.8203 39.1016ZM52.2193 52.8516H29.7595H29.4216C30.4324 47.4779 35.1577 43.3984 40.8205 43.3984C46.4834 43.3984 51.2084 47.4779 52.2193 52.8516ZM61.875 47.5312C64.4813 47.5312 66.6016 49.7365 66.6016 52.4472C66.6016 52.5828 66.5951 52.7175 66.5846 52.8516H57.1652C57.1547 52.7175 57.1482 52.5828 57.1482 52.4472C57.1484 49.7365 59.2687 47.5312 61.875 47.5312ZM17.006 4.29688H17.8653V18.7037C17.5772 18.7064 17.2906 18.7142 17.006 18.7294V4.29688ZM4.42514 33.9045C4.5592 33.9307 4.69756 33.9453 4.83914 33.9453H15.4606C16.647 33.9453 17.609 32.9835 17.609 31.7969C17.609 30.6103 16.647 29.6484 15.4606 29.6484H5.93098C8.25344 25.6921 12.8126 22.9962 18.0469 22.9962C25.6287 22.9962 31.7969 28.6513 31.7969 35.6026C31.7969 36.1631 31.7073 37.1974 31.3659 39.1016H22.8325C21.6462 39.1016 20.6841 40.0634 20.6841 41.25C20.6841 42.4366 21.6462 43.3984 22.8325 43.3984H29.9666C27.3599 45.8388 25.5748 49.1434 25.0712 52.8516H7.97951C5.63234 44.0889 4.29688 37.8452 4.29688 35.6026C4.29688 35.0266 4.34307 34.4605 4.42514 33.9045ZM105.703 70.4688H86.7969C85.6105 70.4688 84.6484 71.4306 84.6484 72.6172C84.6484 73.8038 85.6105 74.7656 86.7969 74.7656H105.703V88.0859H37.9427C36.7563 88.0859 35.7943 89.0478 35.7943 90.2344C35.7943 91.421 36.7563 92.3828 37.9427 92.3828H105.703V105.703H4.29688V92.3828H23.2031C24.3895 92.3828 25.3516 91.421 25.3516 90.2344C25.3516 89.0478 24.3895 88.0859 23.2031 88.0859H4.29688V74.7656H72.0573C73.2437 74.7656 74.2057 73.8038 74.2057 72.6172C74.2057 71.4306 73.2437 70.4688 72.0573 70.4688H4.29688V57.1484H6.33424H105.703V70.4688Z" fill="white"/>
<path d="M52.7378 11.6016H52.7095C51.5231 11.6016 50.561 12.5634 50.561 13.75C50.561 14.9366 51.5231 15.8984 52.7095 15.8984H52.7378C53.9242 15.8984 54.8863 14.9366 54.8863 13.75C54.8863 12.5634 53.9242 11.6016 52.7378 11.6016Z" fill="white"/>
</svg>
