<svg width="110" height="110" viewBox="0 0 110 110" fill="none" xmlns="http://www.w3.org/2000/svg">
<path d="M54.4856 71.7344C51.4056 71.7344 48.8999 74.2401 48.8999 77.3201C48.8999 80.4001 51.4058 82.9058 54.4856 82.9058C57.5654 82.9058 60.0714 80.4001 60.0714 77.3201C60.0714 74.2401 57.5658 71.7344 54.4856 71.7344ZM54.4856 78.6092C53.7747 78.6092 53.1966 78.031 53.1966 77.3201C53.1966 76.6092 53.7747 76.031 54.4856 76.031C55.1965 76.031 55.7747 76.6092 55.7747 77.3201C55.7747 78.031 55.1965 78.6092 54.4856 78.6092Z" fill="#E3C597"/>
<path d="M71.7299 64.6143C71.3303 64.2147 70.776 63.9846 70.2109 63.9846C69.6459 63.9846 69.0916 64.2145 68.692 64.6143C68.2902 65.0137 68.0625 65.568 68.0625 66.1331C68.0625 66.6983 68.2902 67.2526 68.692 67.652C69.0916 68.0518 69.6459 68.2815 70.2109 68.2815C70.776 68.2815 71.3303 68.0518 71.7299 67.652C72.1295 67.2526 72.3594 66.6983 72.3594 66.1331C72.3594 65.568 72.1295 65.0137 71.7299 64.6143Z" fill="#E3C597"/>
<path d="M99.255 30.9347H96.9388L66.634 0.629877C65.795 -0.209088 64.4344 -0.209088 63.5957 0.629877L55.8321 8.39369L24.782 0.0738616C23.6358 -0.23358 22.4576 0.44683 22.1506 1.59302L14.289 30.9347H9.02322C4.04787 30.9347 0 34.9823 0 39.9579C0 40.0771 0.00451172 40.1955 0.00902344 40.3137C0.00408203 40.3728 0 40.4321 0 40.4924V99.2582C0 105.181 4.81895 110 10.742 110H87.6537C87.687 110 87.7196 109.998 87.7529 109.997H99.2548C105.178 109.997 109.997 105.179 109.997 99.2554V41.6764C109.997 35.7532 105.178 30.9347 99.255 30.9347ZM97.3356 35.2313H99.255C102.809 35.2313 105.7 38.1227 105.7 41.6764V58.8947C105.7 61.7024 103.416 63.9867 100.608 63.9867H98.3956V55.426C98.3956 49.5777 93.6972 44.8095 87.8771 44.6896L97.3356 35.2313ZM57.9934 12.309C57.9936 12.3088 57.9938 12.3084 57.9941 12.3081L65.1151 5.18714L93.2093 33.2814L81.8763 44.6144H77.946L83.0867 39.4734C83.9257 38.6345 83.9257 37.2741 83.0867 36.4351C81.3476 34.6959 81.3476 31.8664 83.0867 30.1273C83.9257 29.2883 83.9257 27.9279 83.0867 27.0888L71.3073 15.3097C70.4683 14.4708 69.1079 14.4708 68.2688 15.3097C66.5296 17.0491 63.6999 17.0491 61.9609 15.3097C61.122 14.4708 59.7614 14.4708 58.9226 15.3097L29.6179 44.6146H25.6876L57.9934 12.309ZM51.6708 36.5429C46.7663 36.5429 42.6572 40.006 41.655 44.6146H35.6941L60.6302 19.6786C63.3826 21.3191 66.8471 21.3191 69.5995 19.6786L78.7177 28.7968C77.0773 31.5489 77.0773 35.0139 78.7177 37.7661L71.8691 44.6146H61.6866C60.6843 40.0058 56.5754 36.5429 51.6708 36.5429ZM57.2107 44.6146H46.1317C47.0035 42.4067 49.1573 40.8398 51.6712 40.8398C54.1851 40.8398 56.3387 42.4067 57.2107 44.6146ZM23.4169 40.8087L29.1064 19.575C30.6664 19.6002 32.2182 19.2018 33.608 18.399C34.998 17.5965 36.1165 16.4555 36.8773 15.0884L46.5463 17.6792L32.5147 31.7109L23.4169 40.8087ZM25.7452 4.78023L52.3237 11.9019L50.0547 14.1711L36.1694 10.4504C35.6187 10.3028 35.0324 10.3801 34.5391 10.665C34.0456 10.9499 33.6856 11.4191 33.5382 11.9695C33.2297 13.1203 32.4917 14.0821 31.46 14.6779C30.4281 15.2736 29.2261 15.4318 28.0751 15.1235C26.9294 14.8162 25.751 15.4964 25.4439 16.6426L17.93 44.6842H15.0528L25.7452 4.78023ZM9.02322 35.2313H13.1373L10.6043 44.6842H9.02301C6.41674 44.6842 4.29666 42.5639 4.29666 39.9579C4.29688 37.3516 6.41738 35.2313 9.02322 35.2313ZM105.7 99.2554C105.7 102.809 102.809 105.701 99.255 105.701H96.2433C97.5941 103.904 98.3956 101.673 98.3956 99.258V90.6264H99.6847C101.929 90.6264 104.005 89.9039 105.7 88.6823V99.2554ZM105.7 80.3144C105.7 83.6313 103.001 86.3298 99.6847 86.3298H54.5688C49.5935 86.3298 45.5456 82.2821 45.5456 77.3065C45.5456 72.331 49.5932 68.2833 54.5688 68.2833H61.0799C62.2664 68.2833 63.2283 67.3213 63.2283 66.1349C63.2283 64.9485 62.2664 63.9865 61.0799 63.9865H54.5688C47.2242 63.9865 41.2489 69.9617 41.2489 77.3063C41.2489 84.651 47.2242 90.6262 54.5688 90.6262H94.099V99.2578C94.099 102.778 91.2611 105.649 87.7532 105.703H14.6089V81.5095C14.6089 80.3232 13.6471 79.3611 12.4605 79.3611C11.2739 79.3611 10.3121 80.3232 10.3121 81.5095V105.687C6.95793 105.465 4.29666 102.667 4.29666 99.2582V47.6398C5.6723 48.4893 7.29115 48.9809 9.02301 48.9809H87.6535C91.2074 48.9809 94.0986 51.8723 94.0986 55.426V63.9867H78.5647C77.3781 63.9867 76.4163 64.9487 76.4163 66.1351C76.4163 67.3215 77.3781 68.2835 78.5647 68.2835H100.608C102.484 68.2835 104.232 67.7282 105.7 66.7764V80.3144Z" fill="#E3C597"/>
<path d="M13.9799 71.6112C13.5803 71.2118 13.026 70.9817 12.4609 70.9817C11.8959 70.9817 11.3416 71.2116 10.942 71.6112C10.5424 72.0108 10.3125 72.5651 10.3125 73.1301C10.3125 73.6952 10.5424 74.2495 10.942 74.6491C11.3416 75.0487 11.8959 75.2786 12.4609 75.2786C13.026 75.2786 13.5803 75.0487 13.9799 74.6491C14.3795 74.2495 14.6094 73.6952 14.6094 73.1301C14.6092 72.5651 14.3793 72.0108 13.9799 71.6112Z" fill="#E3C597"/>
</svg>
