<svg width="50" height="50" viewBox="0 0 50 50" fill="none" xmlns="http://www.w3.org/2000/svg">
<circle r="25" transform="matrix(-1 0 0 1 25 25)" fill="#E3C597"/>
<path d="M29.4313 23.3433L21.3343 15.2294C21.0294 14.924 20.5348 14.9235 20.2294 15.2283C19.924 15.533 19.9235 16.0277 20.2282 16.3331L28.3259 24.4476C28.6305 24.7522 28.6305 25.2478 28.3253 25.553L20.2282 33.6669C19.9235 33.9724 19.924 34.467 20.2294 34.7718C20.3819 34.924 20.5816 35 20.7812 35C20.9814 35 21.1816 34.9235 21.3343 34.7706L29.4307 26.6573C30.3445 25.7435 30.3445 24.2565 29.4313 23.3433Z" fill="#21221C"/>
</svg>
