<svg width="100" height="30" viewBox="0 0 100 30" fill="none" xmlns="http://www.w3.org/2000/svg">
<path d="M78.0273 0.248886C75.1511 0.719546 71.4722 2.22891 69.7665 3.64089C68.7966 4.4686 67.6427 5.81567 67.0073 6.88683C66.2046 8.23389 65.8869 10.8631 66.2715 12.908C66.5056 14.174 67.1243 15.0828 68.9136 16.7545C71.8735 19.5135 75.6695 20.7632 80.5524 20.5522C82.2915 20.4711 82.7765 20.3899 84.2146 19.903C86.1544 19.2214 87.3751 18.4748 88.7296 17.144C89.8333 16.0404 90.452 14.8881 90.7196 13.3949C91.3049 10.0354 88.5457 7.21142 83.9303 6.46486C82.3751 6.20518 79.8835 6.4324 78.0608 6.96798C74.1143 8.16897 72.5926 11.1552 74.917 13.1515C75.9872 14.0604 77.0741 14.3363 79.549 14.3525H81.5557L81.6059 13.6871L81.6561 13.0217L80.0006 12.9243C78.8802 12.8756 78.0942 12.7457 77.5925 12.5348C76.7899 12.1777 75.9537 11.3338 75.9537 10.8631C75.9537 10.0841 78.3785 8.85062 80.4855 8.57472C81.7397 8.39619 82.1243 8.41242 83.4955 8.65587C86.84 9.28882 88.529 10.7008 88.5457 12.8918C88.5791 15.521 85.1678 17.5822 80.4521 17.7932C77.325 17.9392 74.8835 17.4524 72.3919 16.1702C71.3049 15.6184 69.4655 14.0441 68.9471 13.2326C68.3952 12.3887 68.2113 11.139 68.4454 9.84063C68.7799 7.81192 70.8033 5.40993 73.1109 4.29008C76.1711 2.81318 81.0206 1.90431 84.0306 2.2776C85.8199 2.48858 89.0641 3.4299 90.5356 4.14401C93.7129 5.70206 96.5724 8.55849 97.4754 11.0741C98.3283 13.4436 97.3584 17.3063 95.2681 19.9517C93.4286 22.2563 91.4554 23.7657 88.4286 25.1452C86.4052 26.0866 84.9838 26.5085 82.6427 26.8656C79.248 27.4012 73.6293 26.8331 68.8802 25.4536C67.81 25.1452 67.7431 25.0965 67.9939 24.8531C68.2782 24.5447 68.7631 22.8731 68.7631 22.2239C68.7464 21.169 68.2447 19.5298 67.6427 18.6696C66.8066 17.4199 65.3518 15.9755 64.1979 15.2127C63.0775 14.4661 61.2715 13.6221 60.7364 13.5735C60.4856 13.5572 60.1846 13.2651 59.8334 12.7295C58.8301 11.2202 56.3384 9.32128 54.0976 8.36373C50.5525 6.83814 46.0876 6.74076 41.79 8.08782L40.1679 8.60718L38.3619 7.56848C35.4522 5.88059 35.1178 5.71829 33.3786 5.05287C26.7231 2.48858 21.5727 1.75825 15.6697 2.52104C8.72989 3.41367 3.89713 6.49732 1.12122 11.8207C0.218212 13.5572 -0.0159011 14.5472 0.000821245 16.3974C0.0175436 21.0067 2.47573 24.8531 6.92387 27.2226C9.14795 28.4074 11.9239 29.0404 14.984 29.0404C19.7332 29.0404 22.9104 28.2613 29.1144 25.5672C30.0676 25.1615 30.9539 24.8206 31.1044 24.8206C31.2382 24.8206 31.8402 25.1777 32.4589 25.6159C34.9171 27.3849 37.3586 28.4561 41.0207 29.365C42.7432 29.7869 43.5291 29.9005 45.6027 29.9654C47.9438 30.0466 48.2783 30.0141 50.6194 29.5435C53.0107 29.0728 53.1612 29.0566 54.0475 29.2838C55.2347 29.5922 58.6127 29.5922 60.8535 29.2838C62.626 29.0404 64.1979 28.521 65.335 27.7907L65.9872 27.3687L67.0073 27.6446C72.2581 29.0566 74.0976 29.3 78.7129 29.154C86.4554 28.9105 92.3417 26.7844 96.0875 22.8406C97.1242 21.7532 97.559 21.1203 98.3617 19.546C98.9135 18.4748 99.4821 17.1602 99.6159 16.6246C100.034 15.0991 100.134 12.5997 99.7998 11.3825C99.2145 9.15899 97.6092 6.56223 95.753 4.82566C94.2647 3.46236 91.1042 1.72579 88.4119 0.833154C86.0206 0.0378993 81.0373 -0.254236 78.0273 0.248886ZM23.6462 5.40993C27.3419 6.23764 30.4689 7.43864 33.7298 9.30505C34.4154 9.71079 35.3017 10.1165 35.6863 10.2139L36.3552 10.3924L34.6161 11.2526C33.6629 11.707 32.6261 12.2751 32.3251 12.4698L31.7733 12.8594L30.1679 12.0803C26.2716 10.2139 24.1646 9.69456 20.3519 9.67834C18.2784 9.6621 17.5927 9.71079 16.3887 10.0029C11.7566 11.139 8.72989 13.9143 8.72989 17.0142C8.72989 18.1989 9.51584 19.6109 10.6028 20.4224C11.6897 21.2176 12.459 21.4936 14.2483 21.7532C16.4556 22.0616 19.1646 21.6396 21.489 20.6171L22.6262 20.114L24.3318 21.104C25.2683 21.6396 26.6228 22.3537 27.3251 22.6783C28.0275 23.0029 28.6128 23.3113 28.6128 23.36C28.6295 23.4898 23.7633 25.4211 21.8737 26.0541C18.6462 27.1253 14.4489 27.3525 11.4891 26.5897C6.80682 25.4049 4.03091 23.1003 2.70984 19.2863C1.65633 16.2676 2.87707 12.2264 5.70314 9.41866C7.12454 8.00668 8.61283 7.11404 10.77 6.35125C12.8436 5.60468 13.8135 5.37747 15.7533 5.19894C16.7232 5.10156 17.7767 4.98795 18.0944 4.95549C19.3486 4.80943 21.9405 5.03664 23.6462 5.40993ZM49.0308 9.40243C51.5558 9.69456 53.3451 10.3438 55.5692 11.772C56.1879 12.1615 56.7732 12.4861 56.8735 12.4861C56.9739 12.4861 57.0575 12.5348 57.0575 12.6159C57.0575 12.6808 56.2883 12.762 55.3351 12.7782C53.2782 12.8431 50.6863 13.1677 49.2649 13.5572L48.2615 13.8331L45.5692 11.983C44.0809 10.9605 42.8937 10.1165 42.9271 10.0841C43.1445 9.85686 45.5191 9.41866 47.3585 9.25636C47.509 9.25636 48.2615 9.32128 49.0308 9.40243ZM40.887 13.6221C42.2415 14.531 43.3452 15.2938 43.3117 15.3263C43.2783 15.3425 42.5425 15.6346 41.6729 15.9755C40.8034 16.3163 39.7164 16.7545 39.2649 16.9655L38.4455 17.355L37.1746 16.4137C36.4723 15.8943 35.4188 15.1477 34.8335 14.7745C33.897 14.1577 33.8134 14.0441 34.0308 13.8331C34.4823 13.3949 37.7432 11.8369 38.0776 11.8856C38.2616 11.918 39.5325 12.6971 40.887 13.6221ZM20.6028 12.2426C22.6763 12.5185 23.4957 12.7295 26.3385 13.8169C28.2449 14.5472 28.8803 14.9205 28.2281 14.9205C28.1111 14.9205 27.0409 15.4886 25.8536 16.1702L23.6964 17.4361L22.3586 16.9979C18.5626 15.7645 15.1178 15.5697 13.9138 16.511C13.5459 16.8032 13.5459 16.8194 13.8135 17.3225C14.081 17.8419 14.0978 17.8419 15.4356 17.8419C16.5058 17.8419 17.1078 17.9392 18.362 18.3612C19.2315 18.6371 19.9339 18.9293 19.9339 18.9779C19.9339 19.1889 17.8268 19.6758 16.5727 19.757C12.459 20.0004 9.98407 18.1827 10.9874 15.6346C11.673 13.8981 15.2014 12.1615 18.3452 12.0316C18.6295 12.0154 19.6329 12.1128 20.6028 12.2426ZM57.0073 14.9368C57.7264 15.0504 58.3953 15.1964 58.5123 15.2776C58.6127 15.3587 58.8301 15.943 58.9806 16.576C59.2481 17.5984 59.2481 17.8906 59.0642 19.335C58.8969 20.5522 58.7799 20.9255 58.6127 20.8606C58.4956 20.8119 56.6561 19.5784 54.5491 18.134C50.2013 15.164 50.3351 15.4236 52.9605 15.0179C54.9003 14.7258 55.4354 14.7258 57.0073 14.9368ZM32.8435 17.5335C34.0643 18.3612 35.1345 19.0916 35.2014 19.1402C35.3184 19.2376 31.79 21.6234 31.2215 21.8344C31.0542 21.8993 26.4221 18.7507 26.3218 18.5073C26.3051 18.4261 27.0576 17.923 28.0275 17.3712C28.9974 16.8194 29.8669 16.2514 29.984 16.1215C30.1011 15.9917 30.285 15.9105 30.4021 15.9592C30.5191 16.0079 31.6228 16.7058 32.8435 17.5335ZM64.1645 17.9392C65.9538 19.6271 66.7732 21.8344 66.2548 23.6034C66.1377 24.0092 65.9705 24.3337 65.8869 24.3337C65.6695 24.3337 60.9036 21.9804 60.4856 21.6721C60.1846 21.4449 60.1678 21.4286 60.4521 21.4124C60.6528 21.4124 60.8869 21.1365 61.121 20.6334C61.4387 19.9842 61.4889 19.5784 61.4889 17.9879V16.1053L62.3083 16.5273C62.7431 16.7545 63.5792 17.3874 64.1645 17.9392ZM50.0675 19.5947C52.392 21.0878 54.9505 22.5972 55.7531 22.9542C56.5558 23.3113 57.1913 23.6521 57.1745 23.7008C57.0575 24.0578 53.6461 26.3787 53.0107 26.5248C52.3083 26.7033 49.3318 25.0641 44.6328 21.9155C42.2582 20.3088 40.285 18.9779 40.2348 18.9293C40.1846 18.8806 40.6194 18.702 41.2047 18.5073C41.79 18.3125 42.9773 17.8743 43.8468 17.5173C44.7164 17.1602 45.5358 16.8681 45.6361 16.8681C45.7532 16.8681 47.7431 18.0853 50.0675 19.5947ZM38.9305 21.6883C41.6896 23.6196 45.3351 25.908 46.8903 26.6871C47.7933 27.1253 48.5291 27.5472 48.5291 27.5959C48.5291 27.7907 45.2348 27.888 44.0977 27.742C41.0542 27.32 38.9806 26.5248 34.1646 23.9767L32.6094 23.149L34.9171 21.9804C36.2047 21.3313 37.3251 20.7794 37.4254 20.7794C37.5258 20.7632 38.2114 21.1852 38.9305 21.6883ZM61.2715 25.6321C62.2581 26.0379 63.0775 26.4111 63.0775 26.4761C63.0775 26.541 62.4588 26.7844 61.7063 27.0279C60.6361 27.3525 59.8501 27.4661 58.2782 27.5472C56.9571 27.5959 56.2214 27.5635 56.2214 27.4661C56.2214 27.3687 56.5056 27.109 56.8568 26.8818C57.1913 26.6384 57.8434 26.0866 58.3117 25.6321C58.7632 25.1777 59.2147 24.8369 59.315 24.8531C59.3986 24.8856 60.2849 25.2264 61.2715 25.6321Z" fill="#E3C597"/>
</svg>
