<svg width="100" height="30" viewBox="0 0 100 30" fill="none" xmlns="http://www.w3.org/2000/svg">
<path d="M13.8409 0.304946C10.9651 0.777056 6.81862 2.6655 4.57818 4.55394C2.68886 6.13307 0.799533 9.09598 0.231064 11.3914C-0.0030114 12.2868 -0.0364508 12.9217 0.030428 14.1264C0.164185 16.2102 0.46514 17.2684 1.65224 19.6289C2.57182 21.4523 2.78918 21.7616 4.27723 23.2267C7.37037 26.271 11.2995 28.0455 16.7835 28.8758C19.0574 29.2177 23.5216 29.3479 26.063 29.1526C27.9857 28.9898 28.9555 28.7944 32.918 27.7362L34.0215 27.4432L34.6903 27.8665C35.7604 28.5665 37.3989 29.12 39.1043 29.3642C41.1776 29.6735 44.5717 29.6735 45.9092 29.3642C46.9124 29.1363 47.0462 29.1363 48.9188 29.5595C50.6075 29.934 51.2763 29.9991 53.6504 29.9991C56.7937 30.0154 57.9641 29.82 61.3248 28.7618C63.7324 27.9967 65.4044 27.199 67.3104 25.8478C68.0628 25.3268 68.7818 24.8873 68.9155 24.8873C69.0493 24.8873 69.8351 25.1803 70.6544 25.5547C75.0851 27.5409 78.0445 28.4688 81.2045 28.8758C85.769 29.4619 89.9823 28.9409 92.7745 27.4595C97.4727 24.9524 99.9305 21.2569 99.9974 16.5521C100.031 14.7287 99.7466 13.5403 98.8605 11.831C96.1184 6.54007 91.2029 3.38181 84.2809 2.5027C79.3319 1.8678 74.5668 2.35619 69.7013 3.96788C66.0397 5.18885 64.9529 5.66096 62.2444 7.22381L59.8367 8.62387L57.9641 8.05408C53.6839 6.76798 49.4538 6.86566 45.9427 8.34711C43.7022 9.29133 41.2277 11.1961 40.1911 12.7589C39.7898 13.3613 39.5223 13.5892 39.2046 13.6217C38.1011 13.7031 35.3758 15.3637 33.9881 16.7637C32.1155 18.6847 31.5637 19.7103 31.3464 21.7127C31.2126 22.7872 31.5637 24.4152 32.0152 24.9198C32.266 25.164 32.1991 25.2129 31.129 25.5222C28.0861 26.4013 24.4746 26.9874 21.3815 27.1176C16.7835 27.2967 12.821 26.2385 8.89186 23.7965C7.38709 22.8686 6.56782 22.1523 5.31385 20.6871C3.34092 18.3754 2.28758 15.8032 2.25415 13.2473C2.23743 11.6356 2.5551 10.6751 3.64188 9.06342C6.11639 5.40049 10.8146 2.84458 16.1315 2.27479C20.2278 1.81896 26.3974 3.43065 28.8719 5.59584C30.9618 7.41917 31.9817 9.74716 31.5972 11.7658C31.3631 12.9868 30.9618 13.5892 29.6075 14.7939C27.0829 17.0079 23.7222 18.0335 19.559 17.8382C14.8106 17.6265 11.4165 15.5427 11.4667 12.8891C11.5168 10.6914 13.2055 9.29133 16.516 8.6727C17.8536 8.41223 18.2382 8.41223 19.5089 8.57503C21.5988 8.86806 24.0566 10.1216 24.0566 10.8867C24.0566 11.3589 23.2206 12.2054 22.4181 12.5636C21.9165 12.7752 21.1307 12.9054 20.0104 12.9543L18.3552 13.0519L18.4054 13.7194L18.4555 14.3869L20.4619 14.3706C22.9531 14.3706 24.0232 14.0776 25.11 13.1659C26.3974 12.0589 26.5478 10.6914 25.5447 9.25878C24.5916 7.89128 22.7358 7.01218 19.9268 6.55635C18.0542 6.26331 17.1012 6.26331 15.4627 6.57263C12.9046 7.04474 10.6474 8.54247 9.72784 10.3658C9.10921 11.5868 9.0925 13.3938 9.67768 14.859C10.5304 17.0079 12.9882 19.0266 15.9476 20.0034C17.3687 20.4592 17.9205 20.5569 19.559 20.622C24.3241 20.8011 28.1362 19.5313 31.0956 16.78C32.8512 15.152 33.5032 14.2241 33.7373 12.938C34.1219 10.8867 33.8042 8.24943 33.0016 6.89822C32.3329 5.77492 31.1959 4.43999 30.1593 3.59344C28.3201 2.11199 24.8424 0.69566 21.7995 0.223547C19.7597 -0.102045 16.0646 -0.0694859 13.8409 0.304946ZM84.9162 5.27025C88.3438 5.7098 91.972 7.22381 93.8613 9.01458C95.5332 10.61 96.2522 11.6682 97.0046 13.6868C97.573 15.266 97.6734 15.7218 97.6734 16.8288C97.6734 20.329 95.3493 23.8128 91.9385 25.4082C88.5946 26.9548 85.7355 27.4106 82.0405 26.9548C79.4155 26.6292 78.2117 26.2873 74.6504 24.8222C73.1958 24.2198 71.8415 23.6663 71.6408 23.6012C71.3399 23.4872 71.4235 23.4058 72.3096 22.9663C72.8614 22.6895 74.2324 21.9569 75.3526 21.322L77.3757 20.1662L78.5126 20.6708C80.8366 21.6965 83.5452 22.1197 85.7522 21.8104C87.5412 21.5499 88.3103 21.2732 89.3971 20.4755C91.5707 18.8638 91.8549 16.1451 90.0826 13.7357C89.4306 12.8566 87.558 11.4891 86.1535 10.8705C84.1304 9.97508 82.4585 9.66577 79.6495 9.69833C75.8375 9.71461 73.7475 10.2193 70.019 12.01L68.2467 12.8729L67.277 12.2542C66.7252 11.9286 65.7388 11.4077 65.07 11.0984C63.7993 10.5286 63.6823 10.3495 64.4848 10.1867C64.7356 10.1379 65.5381 9.76344 66.2571 9.34017C70.1026 7.12613 74.4163 5.61212 78.6464 4.97722C79.4155 4.84698 82.9433 5.02606 84.9162 5.27025ZM55.5732 9.69833C56.125 9.82856 56.6767 9.99136 56.8105 10.0565C56.9609 10.1542 56.242 10.7402 54.4363 12.01C52.9984 13.0031 51.7444 13.8171 51.6274 13.8171C51.527 13.8171 50.9251 13.6706 50.3232 13.5078C49.1194 13.1496 46.6951 12.8729 44.4212 12.8077C43.6019 12.7752 42.9498 12.7101 42.9498 12.6449C42.9498 12.5636 43.0334 12.5147 43.1338 12.5147C43.2341 12.5147 43.7524 12.2217 44.2874 11.8798C47.7317 9.58437 51.8614 8.78666 55.5732 9.69833ZM63.9331 12.7752C66.3908 13.9799 66.4076 13.9962 65.5047 14.566C65.1034 14.8101 64.0334 15.5427 63.1472 16.2102L61.5087 17.3986L60.7229 17.0242C60.2714 16.8125 59.1847 16.3567 58.2818 16.0148C57.3957 15.673 56.7101 15.3311 56.7937 15.2497C57.1114 14.9404 61.7762 11.8635 61.9267 11.8635C62.027 11.8635 62.9299 12.2705 63.9331 12.7752ZM84.1639 12.4496C85.5014 12.7915 87.2403 13.7031 88.1599 14.5334C89.3135 15.5753 89.581 17.0242 88.8454 18.0824C87.7084 19.7266 84.4147 20.3127 81.2379 19.4499L79.8167 19.0754L80.4521 18.7987C81.9736 18.18 83.3112 17.887 84.5986 17.887C85.9027 17.887 85.9194 17.887 86.1702 17.3823C86.5213 16.7474 86.3374 16.5358 85.2005 16.1614C84.5317 15.9497 84.0301 15.9172 82.843 15.9823C81.3382 16.08 78.5461 16.666 77.0413 17.187L76.2722 17.4475L74.1989 16.2428C73.062 15.5753 71.9752 14.9892 71.808 14.9078C71.6408 14.8427 71.5238 14.7613 71.5572 14.7287C71.5907 14.6962 72.3598 14.3706 73.2626 13.9962C77.7937 12.1728 81.1376 11.7007 84.1639 12.4496ZM46.8455 15.0543C47.8822 15.2009 48.8519 15.3637 49.0024 15.4288C49.203 15.4939 48.1998 16.259 45.4411 18.18C43.3344 19.6452 41.4952 20.8662 41.3782 20.915C40.8097 21.1267 40.8265 15.9334 41.3949 15.2985C41.4785 15.1846 43.7357 14.8264 44.4212 14.8101C44.7221 14.7939 45.8256 14.9078 46.8455 15.0543ZM70.0357 16.1776C70.1528 16.3242 71.0389 16.8777 71.9919 17.4312C72.945 17.9847 73.6973 18.4894 73.6806 18.5545C73.5803 18.7987 68.949 21.9569 68.7818 21.8918C68.3972 21.7453 64.6687 19.3033 64.7356 19.2382C64.9362 19.0591 69.6345 15.9334 69.7181 15.9334C69.7849 15.9334 69.9187 16.0474 70.0357 16.1776ZM38.469 17.6103C38.3854 19.3196 38.703 20.7522 39.2882 21.322C39.4722 21.5011 39.6059 21.6965 39.5558 21.729C39.422 21.8593 34.2389 24.3989 34.1051 24.3989C33.8209 24.3989 33.5367 22.9174 33.637 22.0058C33.8376 20.0848 35.543 17.773 37.5996 16.6172C38.1011 16.3404 38.5191 16.0962 38.5359 16.0962C38.5526 16.0962 38.5191 16.78 38.469 17.6103ZM56.2922 17.6265C57.2786 18.0172 58.4824 18.4568 58.9673 18.6196C59.4689 18.7661 59.8033 18.9615 59.7197 19.0266C59.6528 19.0917 57.6632 20.4429 55.3057 22.022C50.6075 25.164 47.6982 26.7757 46.996 26.5966C46.4777 26.4664 44.8893 25.4896 44.1202 24.8222C43.8026 24.5454 43.3511 24.2035 43.117 24.057L42.6991 23.7965L44.5382 22.8849C45.5581 22.3802 48.1162 20.8499 50.2229 19.4499C52.3463 18.0661 54.1688 16.9265 54.2858 16.9265C54.4028 16.9102 55.3057 17.2358 56.2922 17.6265ZM65.0031 22.022L67.394 23.2105L65.6552 24.1384C60.9569 26.6292 58.9506 27.3943 55.9076 27.8176C54.7707 27.9641 51.4769 27.8665 51.4769 27.6711C51.4769 27.6223 52.129 27.2478 52.9315 26.8408C54.6871 25.9617 57.3288 24.3338 60.2547 22.3151C61.4585 21.4848 62.4784 20.8174 62.5286 20.8174C62.5788 20.8174 63.699 21.3546 65.0031 22.022ZM41.6959 25.7013C42.164 26.1571 42.8161 26.7106 43.1505 26.9548C43.5016 27.1827 43.7357 27.4432 43.6688 27.5409C43.6186 27.6385 42.8495 27.6711 41.629 27.606C40.1744 27.5409 39.3551 27.4269 38.3185 27.1013C37.5494 26.8571 36.9308 26.6129 36.9308 26.5478C36.9475 26.4338 40.3583 24.9524 40.6927 24.9036C40.793 24.9036 41.2444 25.2617 41.6959 25.7013Z" fill="#E3C597"/>
</svg>
