<svg width="235" height="110" viewBox="0 0 235 110" fill="none" xmlns="http://www.w3.org/2000/svg">
<path d="M32.0819 79.6117C31.766 80.4864 31.0979 80.9237 30.0774 80.9237H27.5992C25.9957 80.9237 25.8499 79.9033 27.1619 77.8624C27.4292 77.4494 27.9637 76.7083 28.7654 75.6393C31.2436 72.4808 33.5639 69.213 35.7263 65.8358L29.6037 56.6154C28.729 55.2549 28.1823 54.1737 27.9637 53.3719C27.8665 52.886 27.9637 52.5216 28.2552 52.2786C28.5711 52.0356 29.0813 51.9142 29.7859 51.9142H31.353C32.1305 51.9142 32.7743 52.315 33.2845 53.1168C33.649 53.6999 33.9527 54.2223 34.1956 54.6839C34.5358 55.267 34.9609 55.9352 35.4712 56.6883L38.9334 61.7176C39.7837 60.357 41.4845 57.478 44.0355 53.0804C44.5458 52.2057 45.2625 51.7684 46.1857 51.7684H47.6435C48.9555 51.7684 49.1863 52.6066 48.336 54.283C47.8986 55.1091 47.4734 55.7286 47.0604 56.1417C44.0963 59.7375 41.9704 62.4587 40.6827 64.3052L48.7004 75.9673C50.2796 78.2754 50.7777 79.8061 50.1946 80.5593C50.0245 80.8022 49.6844 80.9237 49.1742 80.9237H47.5706C46.5259 80.9237 45.7363 80.62 45.2018 80.0126C44.9588 79.7696 44.6915 79.4538 44.4 79.065C44.1327 78.6277 43.8533 78.1661 43.5618 77.6802C43.3431 77.3157 43.0273 76.8055 42.6142 76.1495L37.5485 68.5691C35.046 73.0639 33.2238 76.7448 32.0819 79.6117Z" fill="#E3C597"/>
<path d="M73.637 51.7684H74.3659C74.8761 51.7684 75.2892 51.902 75.605 52.1693C75.9452 52.4122 76.1152 52.7402 76.1152 53.1533V79.5388C76.1152 79.9519 75.9452 80.292 75.605 80.5593C75.2649 80.8022 74.864 80.9237 74.4024 80.9237H72.6166C72.1064 80.9237 71.6812 80.8022 71.341 80.5593C71.0252 80.292 70.8673 79.9519 70.8673 79.5388V57.7088C70.4056 57.7088 69.8711 58.4377 69.2637 59.8954C65.7651 67.3786 62.3879 73.9507 59.1322 79.6117C58.622 80.4864 57.8567 80.9237 56.8363 80.9237H55.4514C54.9412 80.9237 54.516 80.8022 54.1758 80.5593C53.86 80.292 53.7021 79.9519 53.7021 79.5388V53.0075C53.7021 52.5944 53.8721 52.2664 54.2123 52.0235C54.5524 51.7562 54.9533 51.6226 55.4149 51.6226H57.2007C57.7109 51.6226 58.124 51.7562 58.4398 52.0235C58.78 52.2664 58.95 52.5944 58.95 53.0075V72.2135C63.5663 64.8032 66.8949 59.0208 68.9357 54.8661C69.7132 53.3355 70.2963 52.4244 70.6851 52.1328C71.0981 51.817 72.0821 51.6955 73.637 51.7684Z" fill="#E3C597"/>
<path d="M99.0258 62.3372V56.5426H99.0622V53.0075C99.0622 52.5944 99.2323 52.2664 99.5725 52.0235C99.9126 51.7562 100.313 51.6226 100.775 51.6226H102.524C103.035 51.6226 103.448 51.7562 103.764 52.0235C104.104 52.2664 104.274 52.5944 104.274 53.0075V79.5388C104.274 79.9519 104.104 80.292 103.764 80.5593C103.423 80.8022 103.022 80.9237 102.561 80.9237H100.775C100.265 80.9237 99.8397 80.8022 99.4996 80.5593C99.1837 80.292 99.0258 79.9519 99.0258 79.5388V67.658C99.0015 67.1478 98.8922 66.832 98.6978 66.7105C98.5034 66.5647 98.0782 66.4918 97.4222 66.4918H88.3841C87.7281 66.4918 87.3029 66.5647 87.1086 66.7105C86.9142 66.832 86.8049 67.1478 86.7806 67.658V79.5388C86.7806 79.9519 86.6105 80.292 86.2703 80.5593C85.9302 80.8022 85.5293 80.9237 85.0677 80.9237H83.3184C82.8081 80.9237 82.383 80.8022 82.0428 80.5593C81.727 80.292 81.569 79.9519 81.569 79.5388V76.2953V56.6883V53.1533C81.569 52.7402 81.7391 52.4122 82.0793 52.1693C82.4194 51.902 82.8203 51.7684 83.2819 51.7684H85.0312C85.5415 51.7684 85.9545 51.902 86.2703 52.1693C86.6105 52.4122 86.7806 52.7402 86.7806 53.1533V61.9363V62.3372C86.8049 62.8717 86.902 63.2118 87.0721 63.3576C87.2665 63.4791 87.7038 63.5398 88.3841 63.5398H97.4222C98.1025 63.5398 98.5277 63.4791 98.6978 63.3576C98.8922 63.2118 99.0015 62.8717 99.0258 62.3372Z" fill="#E3C597"/>
<path d="M114.968 53.0075V64.0501C118.491 61.2803 121.2 58.8507 123.095 56.7612C126.205 53.3841 128.343 51.659 129.509 51.5862C130.675 51.5376 131.283 51.9384 131.331 52.7888C131.38 53.4205 131.028 54.0644 130.274 54.7204C126.411 58.2676 122.184 61.7905 117.592 65.2892L129.145 75.7851C130.991 77.34 131.914 78.5913 131.914 79.5388C131.914 79.9519 131.744 80.292 131.404 80.5593C131.088 80.8022 130.675 80.9237 130.165 80.9237H128.015C126.994 80.9237 126.156 80.4864 125.5 79.6117C122.05 75.0926 118.539 71.0716 114.968 67.5487V79.5388C114.968 79.9519 114.798 80.292 114.458 80.5593C114.117 80.8022 113.717 80.9237 113.255 80.9237H111.506C110.995 80.9237 110.57 80.8022 110.23 80.5593C109.914 80.292 109.756 79.9519 109.756 79.5388V53.0075C109.756 52.5944 109.926 52.2664 110.267 52.0235C110.607 51.7562 111.008 51.6226 111.469 51.6226H113.219C113.729 51.6226 114.142 51.7562 114.458 52.0235C114.798 52.2664 114.968 52.5944 114.968 53.0075Z" fill="#E3C597"/>
<path d="M148.028 55.4857L154.26 75.9673C154.697 77.4251 154.916 78.5791 154.916 79.4295C154.94 79.9397 154.819 80.3163 154.552 80.5593C154.309 80.8022 153.92 80.9237 153.385 80.9237H152.073C151.077 80.9237 150.409 80.6686 150.069 80.1584C149.875 79.7939 149.729 79.4902 149.632 79.2473C149.219 77.5708 148.951 76.5383 148.83 76.1495L148.028 73.562L147.992 73.4526C147.87 73.1854 147.384 73.0518 146.534 73.0518H141.213C140.363 73.0518 139.865 73.1975 139.719 73.4891C139.014 75.9916 138.383 78.0325 137.824 79.6117C137.532 80.4864 136.9 80.9237 135.929 80.9237H134.471C133.499 80.9237 133.268 80.1827 133.778 78.7006C133.924 78.239 134.459 76.9513 135.382 74.8375C135.406 74.7889 135.431 74.7403 135.455 74.6917C135.479 74.6189 135.491 74.5703 135.491 74.546C138.577 66.9899 140.739 60.9887 141.978 56.5426C142.634 54.1858 143.072 52.8374 143.29 52.4973C143.63 52.0113 144.068 51.7684 144.602 51.7684C145.623 51.7684 146.327 52.0235 146.716 52.5337C147.153 52.9953 147.591 53.9793 148.028 55.4857ZM147.008 70.3185L143.728 59.7496C143.023 62.5437 142.051 66.1395 140.812 70.5371L147.008 70.3185Z" fill="#E3C597"/>
<path d="M157.48 77.9717C158.063 77.0485 158.84 75.8458 159.812 74.3638C160.201 73.7806 160.675 73.0518 161.233 72.1771C161.816 71.3024 162.193 70.7315 162.363 70.4642C162.509 70.2456 162.825 69.7353 163.311 68.9336C163.821 68.1318 164.258 67.4394 164.623 66.8563C165.838 64.9612 166.676 63.6249 167.137 62.8474C167.38 62.4101 168.109 61.1467 169.324 59.0572C170.466 57.0649 171.256 55.6679 171.693 54.8661C172.3 53.7728 172.665 53.129 172.786 52.9346C173.248 52.2057 174.025 51.8291 175.119 51.8048C175.167 51.7805 175.289 51.7684 175.483 51.7684H177.159C177.621 51.7684 178.022 51.902 178.362 52.1693C178.702 52.4122 178.872 52.7402 178.872 53.1533V79.5388C178.872 79.9519 178.702 80.292 178.362 80.5593C178.022 80.8022 177.621 80.9237 177.159 80.9237H175.374C174.864 80.9237 174.438 80.8022 174.098 80.5593C173.782 80.292 173.624 79.9519 173.624 79.5388V57.7088C173.211 57.7088 172.677 58.4377 172.021 59.8954C168.522 67.3786 165.145 73.9507 161.889 79.6117C161.379 80.4864 160.614 80.9237 159.593 80.9237H158.245C157.638 80.9237 157.188 80.8387 156.897 80.6686C156.629 80.4985 156.52 80.2556 156.569 79.9397C156.69 79.3809 156.994 78.7249 157.48 77.9717Z" fill="#E3C597"/>
<path d="M204.288 51.7684H205.017C205.527 51.7684 205.94 51.902 206.256 52.1693C206.596 52.4122 206.766 52.7402 206.766 53.1533V79.5388C206.766 79.9519 206.596 80.292 206.256 80.5593C205.916 80.8022 205.515 80.9237 205.053 80.9237H203.267C202.757 80.9237 202.332 80.8022 201.992 80.5593C201.676 80.292 201.518 79.9519 201.518 79.5388V57.7088C201.057 57.7088 200.522 58.4377 199.915 59.8954C196.416 67.3786 193.039 73.9507 189.783 79.6117C189.273 80.4864 188.508 80.9237 187.487 80.9237H186.102C185.592 80.9237 185.167 80.8022 184.827 80.5593C184.511 80.292 184.353 79.9519 184.353 79.5388V53.0075C184.353 52.5944 184.523 52.2664 184.863 52.0235C185.203 51.7562 185.604 51.6226 186.066 51.6226H187.852C188.362 51.6226 188.775 51.7562 189.091 52.0235C189.431 52.2664 189.601 52.5944 189.601 53.0075V72.2135C194.217 64.8032 197.546 59.0208 199.587 54.8661C200.364 53.3355 200.947 52.4244 201.336 52.1328C201.749 51.817 202.733 51.6955 204.288 51.7684Z" fill="#E3C597"/>
<path d="M44.0461 104.164C44.1301 103.708 44.1722 103.287 44.1722 102.903C44.1722 102.351 43.962 101.828 43.5417 101.336C43.1215 100.844 42.6471 100.598 42.1188 100.598C42.0948 100.598 42.0647 100.598 42.0287 100.598L41.9747 100.616V104.38C41.9747 105.101 41.5364 105.461 40.6598 105.461C40.2395 105.461 39.9453 105.341 39.7772 105.101C39.6091 104.861 39.525 104.464 39.525 103.912V95.284C39.501 95.0078 39.3149 94.8818 38.9666 94.9058C38.4743 94.9298 38.2281 94.7377 38.2281 94.3294C38.2281 94.0292 38.3963 93.819 38.7325 93.699C39.417 93.4228 40.1014 92.9905 40.7859 92.4021C41.0861 92.1379 41.3623 92.0478 41.6144 92.1319C41.8546 92.2039 41.9747 92.4921 41.9747 92.9965V99.3548L42.2269 99.3188C42.6952 99.2467 43.0434 99.0486 43.2716 98.7244C43.4997 98.4001 43.6678 97.9438 43.7759 97.3554C43.8359 96.9712 43.932 96.725 44.0641 96.6169C44.1962 96.5089 44.4544 96.4548 44.8386 96.4548C45.2709 96.4548 45.5951 96.4668 45.8113 96.4908C46.4717 96.5869 46.6519 96.9231 46.3517 97.4995C45.8353 98.4482 45.2349 99.2227 44.5504 99.8231C44.6585 99.9312 44.7846 100.039 44.9287 100.147C45.9254 100.868 46.5018 101.973 46.6579 103.462C46.6699 103.57 46.6759 103.648 46.6759 103.696C46.6879 103.732 46.7059 103.786 46.7299 103.858C46.7659 103.93 46.826 103.984 46.91 104.02C46.9941 104.044 47.1022 104.056 47.2342 104.056C47.4624 104.056 47.6605 104.122 47.8287 104.254C47.9968 104.386 48.0808 104.554 48.0808 104.758C48.0808 104.939 48.0028 105.101 47.8467 105.245C47.7026 105.389 47.5224 105.461 47.3063 105.461H44.8566C44.5925 105.461 44.3763 105.323 44.2082 105.047C44.0401 104.77 43.986 104.476 44.0461 104.164Z" fill="#E3C597"/>
<path d="M56.4542 103.66C56.6584 103.492 56.8685 103.456 57.0847 103.552C57.3128 103.648 57.4269 103.834 57.4269 104.11C57.4269 104.554 57.1147 104.927 56.4903 105.227C55.8779 105.527 55.3255 105.677 54.8331 105.677C54.4489 105.677 54.1607 105.545 53.9686 105.281C53.7764 105.017 53.6383 104.626 53.5543 104.11C53.0379 104.686 52.5636 105.113 52.1313 105.389C51.711 105.641 51.1707 105.767 50.5102 105.767C50.0179 105.767 49.5916 105.569 49.2314 105.173C48.5709 104.416 48.5049 103.474 49.0332 102.345C49.2614 101.852 49.5015 101.48 49.7537 101.228L50.7624 100.219C51.1587 99.8231 51.4709 99.4629 51.699 99.1386C51.7591 99.0426 51.7891 98.9405 51.7891 98.8324C51.7891 98.6883 51.735 98.4962 51.627 98.256C51.5309 98.0039 51.4168 97.8778 51.2847 97.8778C51.2127 97.8778 51.0866 97.9678 50.9065 98.148C50.7384 98.3161 50.5703 98.4181 50.4021 98.4542C50.222 98.4902 50.0599 98.4482 49.9158 98.3281C49.7717 98.208 49.6997 98.0699 49.6997 97.9138C49.6997 97.5656 50.0359 97.1573 50.7084 96.689C51.3688 96.2207 51.8611 95.9865 52.1854 95.9865C53.074 95.9865 53.6984 96.6109 54.0586 97.8598L55.5176 102.885C55.6257 103.269 55.7578 103.624 55.9139 103.948C56.118 103.864 56.2981 103.768 56.4542 103.66ZM52.8338 102.993C52.9178 102.897 52.9599 102.741 52.9599 102.525C52.9599 102.153 52.8578 101.696 52.6537 101.156C52.4856 100.664 52.1854 100.628 51.7531 101.048C51.4769 101.324 51.2427 101.642 51.0506 102.003C50.8585 102.363 50.7624 102.693 50.7624 102.993C50.7624 103.233 50.8164 103.438 50.9245 103.606C51.0446 103.774 51.1767 103.858 51.3208 103.858C51.4889 103.858 51.7471 103.75 52.0953 103.534C52.4555 103.305 52.7017 103.125 52.8338 102.993Z" fill="#E3C597"/>
<path d="M65.9458 93.5368V97.4275C66.4742 97.0672 66.9965 96.8871 67.5129 96.8871C68.2454 96.8871 68.9479 97.0912 69.6203 97.4995C70.2928 97.8958 70.8391 98.4482 71.2594 99.1566C71.8838 100.189 72.076 101.306 71.8358 102.507C71.5957 103.696 70.9892 104.59 70.0166 105.191C69.4282 105.563 68.7617 105.749 68.0172 105.749C67.2967 105.749 66.6063 105.527 65.9458 105.083V108.919C65.9458 109.64 65.5496 110 64.757 110C64.3608 110 64.0786 109.874 63.9104 109.622C63.7423 109.382 63.6583 108.991 63.6583 108.451V105.191C63.1419 105.563 62.6076 105.749 62.0552 105.749C61.3107 105.749 60.6022 105.557 59.9298 105.173C59.2573 104.776 58.7229 104.236 58.3267 103.552C57.7022 102.507 57.5101 101.378 57.7503 100.165C58.0024 98.9765 58.6089 98.0759 59.5695 97.4635C60.1939 97.0792 60.8544 96.8871 61.5508 96.8871C62.2593 96.8871 62.9618 97.1333 63.6583 97.6256V95.7884C63.6463 95.5602 63.4661 95.4461 63.1179 95.4461C62.6496 95.4461 62.4154 95.254 62.4154 94.8697C62.4154 94.5815 62.5775 94.3714 62.9018 94.2393C63.4782 93.9992 64.1146 93.5669 64.8111 92.9424C65.0872 92.6903 65.3514 92.6002 65.6036 92.6723C65.8318 92.7443 65.9458 93.0325 65.9458 93.5368ZM62.2173 104.362C63.0939 104.278 63.6162 103.792 63.7844 102.903V100.021C63.6763 99.2287 63.4481 98.6943 63.0999 98.4181C62.7517 98.142 62.2473 98.0399 61.5869 98.1119C61.0345 98.172 60.6082 98.5142 60.308 99.1386C60.0078 99.751 59.9057 100.49 60.0018 101.354C60.1099 102.327 60.362 103.089 60.7583 103.642C61.1666 104.182 61.6529 104.422 62.2173 104.362ZM67.9272 104.362C68.4195 104.314 68.8218 103.972 69.134 103.335C69.4342 102.711 69.5423 101.973 69.4582 101.12C69.3501 100.147 69.098 99.3908 68.7017 98.8504C68.3054 98.2981 67.8371 98.0519 67.2967 98.1119C66.6483 98.208 66.198 98.5142 65.9458 99.0306V99.1206H65.9098C65.8978 99.1566 65.8858 99.1927 65.8738 99.2287C65.8618 99.2647 65.8498 99.3007 65.8378 99.3368C65.8257 99.3608 65.8197 99.3788 65.8197 99.3908V102.885C65.9038 103.39 66.0479 103.762 66.252 104.002C66.4682 104.242 66.7143 104.368 66.9905 104.38C67.2667 104.392 67.5789 104.386 67.9272 104.362Z" fill="#E3C597"/>
<path d="M75.0341 101.174C75.3823 101.943 75.8627 102.591 76.4751 103.119C77.1115 103.66 77.7479 103.93 78.3844 103.93C79.0568 103.93 79.7533 103.57 80.4738 102.849C80.822 102.501 81.1703 102.495 81.5185 102.831C81.8667 103.179 81.8367 103.54 81.4284 103.912C80.9361 104.38 80.2817 104.8 79.4651 105.173C78.6846 105.533 77.9401 105.713 77.2316 105.713C76.0548 105.713 75.0221 105.233 74.1335 104.272C73.2569 103.323 72.8186 102.207 72.8186 100.922C72.8186 99.673 73.2389 98.5743 74.0795 97.6256C74.92 96.677 75.9527 96.2026 77.1776 96.2026C78.3303 96.2026 79.4051 96.6109 80.4017 97.4275C81.3984 98.244 81.8968 99.1927 81.8968 100.273C81.8968 100.67 81.8067 100.946 81.6266 101.102C81.4464 101.258 81.1342 101.336 80.6899 101.336C79.1889 101.336 77.3036 101.282 75.0341 101.174ZM79.4471 99.8411C79.255 99.2767 78.8767 98.7664 78.3123 98.3101C77.76 97.8658 77.1535 97.6436 76.4931 97.6436C76.1689 97.6436 75.8266 97.8358 75.4664 98.22C75.1182 98.6043 74.944 99.0005 74.944 99.4088C74.944 99.7571 75.1662 99.9312 75.6105 99.9312H79.1409C79.2129 99.9312 79.273 99.9312 79.321 99.9312C79.369 99.9192 79.4051 99.9072 79.4291 99.8951C79.4531 99.8831 79.4591 99.8651 79.4471 99.8411Z" fill="#E3C597"/>
<path d="M90.0041 100.958C90.0041 99.685 90.4364 98.5743 91.3009 97.6256C92.1655 96.677 93.2403 96.2026 94.5251 96.2026C94.9454 96.2026 95.4257 96.3227 95.9661 96.5629C96.5065 96.8031 96.8367 96.9231 96.9568 96.9231C97.1849 96.9231 97.359 96.791 97.4791 96.5269C97.5992 96.2627 97.7913 96.1306 98.0555 96.1306C98.4758 96.1306 98.692 96.3828 98.704 96.8871C98.716 96.9952 98.722 97.4155 98.722 98.148C98.722 98.9405 98.5419 99.3368 98.1816 99.3368C97.9655 99.3368 97.7553 99.2647 97.5512 99.1206C97.1309 98.8204 96.8007 98.5983 96.5605 98.4542C95.84 97.9859 95.0955 97.7517 94.327 97.7517C93.6305 97.7517 93.0661 97.9318 92.6339 98.2921C92.2136 98.6403 92.0034 99.1446 92.0034 99.8051C92.0034 100.634 92.4057 101.504 93.2102 102.417C94.0148 103.329 94.8373 103.786 95.6779 103.786C96.3744 103.786 97.0348 103.474 97.6593 102.849C97.8034 102.705 97.9715 102.627 98.1636 102.615C98.3557 102.603 98.5298 102.669 98.686 102.813C99.0462 103.173 99.0222 103.54 98.6139 103.912C98.1216 104.38 97.4671 104.8 96.6506 105.173C95.87 105.533 95.1255 105.713 94.4171 105.713C93.2403 105.713 92.2076 105.233 91.319 104.272C90.4424 103.323 90.0041 102.219 90.0041 100.958Z" fill="#E3C597"/>
<path d="M114.29 103.66C114.494 103.492 114.705 103.456 114.921 103.552C115.149 103.648 115.263 103.834 115.263 104.11C115.263 104.554 114.951 104.927 114.326 105.227C113.714 105.527 113.162 105.677 112.669 105.677C112.285 105.677 111.997 105.545 111.805 105.281C111.612 105.017 111.474 104.626 111.39 104.11C110.874 104.686 110.4 105.113 109.967 105.389C109.547 105.641 109.007 105.767 108.346 105.767C107.854 105.767 107.428 105.569 107.067 105.173C106.407 104.416 106.341 103.474 106.869 102.345C107.097 101.852 107.338 101.48 107.59 101.228L108.598 100.219C108.995 99.8231 109.307 99.4629 109.535 99.1386C109.595 99.0426 109.625 98.9405 109.625 98.8324C109.625 98.6883 109.571 98.4962 109.463 98.256C109.367 98.0039 109.253 97.8778 109.121 97.8778C109.049 97.8778 108.923 97.9678 108.743 98.148C108.574 98.3161 108.406 98.4181 108.238 98.4542C108.058 98.4902 107.896 98.4482 107.752 98.3281C107.608 98.208 107.536 98.0699 107.536 97.9138C107.536 97.5656 107.872 97.1573 108.544 96.689C109.205 96.2207 109.697 95.9865 110.021 95.9865C110.91 95.9865 111.534 96.6109 111.895 97.8598L113.354 102.885C113.462 103.269 113.594 103.624 113.75 103.948C113.954 103.864 114.134 103.768 114.29 103.66ZM110.67 102.993C110.754 102.897 110.796 102.741 110.796 102.525C110.796 102.153 110.694 101.696 110.49 101.156C110.322 100.664 110.021 100.628 109.589 101.048C109.313 101.324 109.079 101.642 108.887 102.003C108.694 102.363 108.598 102.693 108.598 102.993C108.598 103.233 108.652 103.438 108.761 103.606C108.881 103.774 109.013 103.858 109.157 103.858C109.325 103.858 109.583 103.75 109.931 103.534C110.292 103.305 110.538 103.125 110.67 102.993Z" fill="#E3C597"/>
<path d="M120.774 104.164C120.858 103.708 120.9 103.287 120.9 102.903C120.9 102.351 120.69 101.828 120.269 101.336C119.849 100.844 119.375 100.598 118.847 100.598C118.823 100.598 118.792 100.598 118.756 100.598L118.702 100.616V104.38C118.702 105.101 118.264 105.461 117.388 105.461C116.967 105.461 116.673 105.341 116.505 105.101C116.337 104.861 116.253 104.464 116.253 103.912V95.284C116.229 95.0078 116.043 94.8818 115.694 94.9058C115.202 94.9298 114.956 94.7377 114.956 94.3294C114.956 94.0292 115.124 93.819 115.46 93.699C116.145 93.4228 116.829 92.9905 117.514 92.4021C117.814 92.1379 118.09 92.0478 118.342 92.1319C118.582 92.2039 118.702 92.4921 118.702 92.9965V99.3548L118.955 99.3188C119.423 99.2467 119.771 99.0486 119.999 98.7244C120.227 98.4001 120.396 97.9438 120.504 97.3554C120.564 96.9712 120.66 96.725 120.792 96.6169C120.924 96.5089 121.182 96.4548 121.566 96.4548C121.999 96.4548 122.323 96.4668 122.539 96.4908C123.199 96.5869 123.38 96.9231 123.079 97.4995C122.563 98.4482 121.963 99.2227 121.278 99.8231C121.386 99.9312 121.512 100.039 121.656 100.147C122.653 100.868 123.229 101.973 123.386 103.462C123.398 103.57 123.404 103.648 123.404 103.696C123.416 103.732 123.434 103.786 123.458 103.858C123.494 103.93 123.554 103.984 123.638 104.02C123.722 104.044 123.83 104.056 123.962 104.056C124.19 104.056 124.388 104.122 124.556 104.254C124.725 104.386 124.809 104.554 124.809 104.758C124.809 104.939 124.731 105.101 124.574 105.245C124.43 105.389 124.25 105.461 124.034 105.461H121.584C121.32 105.461 121.104 105.323 120.936 105.047C120.768 104.77 120.714 104.476 120.774 104.164Z" fill="#E3C597"/>
<path d="M129.526 97.5896C129.489 97.6857 129.243 98.202 128.787 99.1386C128.319 100.111 128.085 100.892 128.085 101.48C128.085 102.033 128.229 102.501 128.517 102.885C128.805 103.269 129.189 103.462 129.67 103.462C130.126 103.462 130.558 103.335 130.966 103.083C131.375 102.831 131.579 102.495 131.579 102.075V98.0039C131.579 97.4515 131.663 97.0552 131.831 96.8151C131.999 96.5749 132.293 96.4548 132.714 96.4548C133.59 96.4548 134.029 96.8271 134.029 97.5716V103.516C134.065 103.852 134.197 104.146 134.425 104.398C134.497 104.458 134.593 104.542 134.713 104.65C134.845 104.758 134.923 104.83 134.947 104.867C135.331 105.191 135.524 105.641 135.524 106.217C135.524 106.962 135.151 107.562 134.407 108.019C133.674 108.463 132.876 108.685 132.011 108.685C131.555 108.685 130.948 108.505 130.192 108.145C129.435 107.784 128.829 107.604 128.373 107.604C127.844 107.604 127.418 107.839 127.094 108.307C126.746 108.835 126.397 108.949 126.049 108.649C125.809 108.457 125.893 107.965 126.301 107.172C126.674 106.452 127.316 106.091 128.229 106.091C128.889 106.091 129.652 106.241 130.516 106.542C131.381 106.842 132.155 106.992 132.84 106.992C133.044 106.992 133.224 106.926 133.38 106.794C133.548 106.674 133.632 106.518 133.632 106.326C133.632 106.073 133.554 105.869 133.398 105.713C133.242 105.557 133.038 105.473 132.786 105.461H132.714C132.065 105.461 131.699 105.131 131.615 104.47C131.483 104.302 131.399 104.2 131.363 104.164C131.111 104.344 130.912 104.506 130.768 104.65C130.132 105.227 129.489 105.515 128.841 105.515C127.904 105.515 127.16 105.173 126.608 104.488C126.043 103.78 125.761 102.927 125.761 101.931C125.761 101.426 125.881 100.85 126.121 100.201C126.373 99.5649 126.674 99.0186 127.022 98.5622C127.19 98.2861 127.274 98.1179 127.274 98.0579C127.274 97.9018 127.118 97.8237 126.806 97.8237C126.758 97.8237 126.668 97.8297 126.535 97.8418C126.403 97.8538 126.325 97.8598 126.301 97.8598C126.073 97.8598 125.875 97.7937 125.707 97.6616C125.539 97.5295 125.455 97.3614 125.455 97.1573C125.455 96.9772 125.527 96.8151 125.671 96.671C125.827 96.5269 126.013 96.4548 126.229 96.4548H128.625C129.009 96.4548 129.285 96.5569 129.453 96.761C129.622 96.9532 129.646 97.2293 129.526 97.5896Z" fill="#E3C597"/>
<path d="M137.971 101.174C138.319 101.943 138.8 102.591 139.412 103.119C140.049 103.66 140.685 103.93 141.322 103.93C141.994 103.93 142.69 103.57 143.411 102.849C143.759 102.501 144.107 102.495 144.456 102.831C144.804 103.179 144.774 103.54 144.366 103.912C143.873 104.38 143.219 104.8 142.402 105.173C141.622 105.533 140.877 105.713 140.169 105.713C138.992 105.713 137.959 105.233 137.071 104.272C136.194 103.323 135.756 102.207 135.756 100.922C135.756 99.673 136.176 98.5743 137.017 97.6256C137.857 96.677 138.89 96.2026 140.115 96.2026C141.267 96.2026 142.342 96.6109 143.339 97.4275C144.336 98.244 144.834 99.1927 144.834 100.273C144.834 100.67 144.744 100.946 144.564 101.102C144.384 101.258 144.071 101.336 143.627 101.336C142.126 101.336 140.241 101.282 137.971 101.174ZM142.384 99.8411C142.192 99.2767 141.814 98.7664 141.249 98.3101C140.697 97.8658 140.091 97.6436 139.43 97.6436C139.106 97.6436 138.764 97.8358 138.404 98.22C138.055 98.6043 137.881 99.0005 137.881 99.4088C137.881 99.7571 138.103 99.9312 138.548 99.9312H142.078C142.15 99.9312 142.21 99.9312 142.258 99.9312C142.306 99.9192 142.342 99.9072 142.366 99.8951C142.39 99.8831 142.396 99.8651 142.384 99.8411Z" fill="#E3C597"/>
<path d="M146.782 103.912V98.5803C146.782 98.2921 146.728 98.1059 146.62 98.0219C146.512 97.9378 146.29 97.8958 145.954 97.8958C145.726 97.8958 145.528 97.8297 145.36 97.6977C145.191 97.5656 145.107 97.3975 145.107 97.1933C145.107 97.0132 145.179 96.8511 145.323 96.707C145.48 96.5629 145.666 96.4908 145.882 96.4908H148.332C148.584 96.4908 148.794 96.6049 148.962 96.8331C149.142 97.0492 149.232 97.3134 149.232 97.6256V99.4629C149.328 99.703 149.598 99.8231 150.043 99.8231C150.511 99.7991 150.979 99.7991 151.448 99.8231C151.892 99.8231 152.162 99.703 152.258 99.4629V98.0039C152.258 97.4515 152.342 97.0552 152.51 96.8151C152.678 96.5749 152.973 96.4548 153.393 96.4548C154.27 96.4548 154.708 96.8271 154.708 97.5716V104.38C154.708 105.101 154.27 105.461 153.393 105.461C152.973 105.461 152.678 105.341 152.51 105.101C152.342 104.861 152.258 104.464 152.258 103.912V101.534C152.162 101.282 151.892 101.156 151.448 101.156C150.979 101.18 150.511 101.18 150.043 101.156C149.598 101.156 149.328 101.282 149.232 101.534V104.38C149.232 105.101 148.794 105.461 147.917 105.461C147.497 105.461 147.203 105.341 147.035 105.101C146.867 104.861 146.782 104.464 146.782 103.912Z" fill="#E3C597"/>
<path d="M157.372 103.912V98.5803C157.372 98.2921 157.318 98.1059 157.21 98.0219C157.101 97.9378 156.879 97.8958 156.543 97.8958C156.315 97.8958 156.117 97.8297 155.949 97.6977C155.781 97.5656 155.697 97.3975 155.697 97.1933C155.697 97.0132 155.769 96.8511 155.913 96.707C156.069 96.5629 156.255 96.4908 156.471 96.4908H158.921C159.137 96.4908 159.323 96.5749 159.479 96.743C159.647 96.9111 159.755 97.1273 159.803 97.3915C160.031 97.5115 160.332 97.4215 160.704 97.1213C161.436 96.5569 162.133 96.2747 162.793 96.2747C163.262 96.2747 163.814 96.5269 164.45 97.0312C164.595 97.1633 164.745 97.2353 164.901 97.2474C164.973 97.2474 165.117 97.1633 165.333 96.9952C165.561 96.8271 165.855 96.665 166.216 96.5089C166.576 96.3407 166.954 96.2567 167.35 96.2567C168.203 96.2567 168.875 96.5929 169.368 97.2654C169.86 97.9378 170.106 98.7003 170.106 99.5529C170.106 100.249 170.004 100.922 169.8 101.57C169.584 102.243 169.272 103.035 168.863 103.948C169.608 103.804 170.25 103.84 170.791 104.056C170.851 104.08 171.013 104.122 171.277 104.182C171.553 104.242 171.709 104.278 171.745 104.29C172.058 104.398 172.214 104.578 172.214 104.83C172.214 105.131 172.064 105.359 171.763 105.515C171.463 105.671 171.109 105.749 170.701 105.749C170.412 105.749 170.022 105.659 169.53 105.479C169.026 105.311 168.665 105.227 168.449 105.227C168.329 105.227 168.149 105.281 167.909 105.389C167.669 105.497 167.507 105.551 167.422 105.551C167.254 105.551 167.086 105.479 166.918 105.335C166.738 105.179 166.714 104.885 166.846 104.452C166.846 104.44 166.96 104.122 167.188 103.498C167.392 102.909 167.507 102.567 167.531 102.471C167.747 101.822 167.855 101.162 167.855 100.49C167.855 99.697 167.729 99.1266 167.477 98.7784C167.236 98.4302 166.792 98.256 166.144 98.256C165.927 98.256 165.711 98.3041 165.495 98.4001C165.471 98.6643 165.459 98.8144 165.459 98.8504C165.375 99.9912 165.195 101.006 164.919 101.894C164.643 102.759 164.246 103.696 163.73 104.704C163.61 104.945 163.442 105.143 163.226 105.299C163.009 105.443 162.811 105.479 162.631 105.407C162.235 105.203 162.055 104.933 162.091 104.596C162.115 104.296 162.199 103.966 162.343 103.606C162.883 102.261 163.172 101.192 163.208 100.399C163.256 98.9945 162.757 98.2921 161.713 98.2921C160.884 98.2921 160.254 98.6703 159.821 99.4268V104.38C159.821 105.101 159.383 105.461 158.506 105.461C158.086 105.461 157.792 105.341 157.624 105.101C157.456 104.861 157.372 104.464 157.372 103.912Z" fill="#E3C597"/>
<path d="M178.019 103.876C178.487 103.876 178.865 103.72 179.153 103.408C179.442 103.095 179.586 102.687 179.586 102.183C179.586 101.294 179.159 100.369 178.307 99.4088C177.466 98.4602 176.608 97.9859 175.731 97.9859C175.263 97.9859 174.884 98.142 174.596 98.4542C174.308 98.7664 174.164 99.1747 174.164 99.679C174.164 100.58 174.584 101.504 175.425 102.453C176.265 103.402 177.13 103.876 178.019 103.876ZM176.632 96.2207C177.965 96.2207 179.117 96.731 180.09 97.7517C181.063 98.7604 181.549 99.9372 181.549 101.282C181.549 102.531 181.129 103.582 180.288 104.434C179.436 105.287 178.391 105.713 177.154 105.713C175.797 105.713 174.644 105.221 173.696 104.236C172.747 103.251 172.273 102.081 172.273 100.724C172.273 99.4869 172.687 98.4242 173.516 97.5355C174.356 96.659 175.395 96.2207 176.632 96.2207Z" fill="#E3C597"/>
<path d="M183.965 102.705C184.782 100.976 185.472 99.1627 186.037 97.2654C186.169 96.785 186.289 96.4728 186.397 96.3287C186.493 96.1966 186.673 96.1306 186.937 96.1306C187.118 96.1306 187.286 96.2987 187.442 96.6349L188.973 99.9312C189.285 100.64 189.495 100.994 189.603 100.994C189.675 100.994 189.759 100.91 189.855 100.742C190.084 100.249 190.39 99.4629 190.774 98.3821C190.894 98.0819 191.002 97.7937 191.098 97.5175C191.206 97.2413 191.29 97.0312 191.35 96.8871C191.41 96.731 191.446 96.6349 191.458 96.5989C191.555 96.3347 191.645 96.1726 191.729 96.1126C191.813 96.0405 191.975 96.0045 192.215 96.0045C192.407 96.0045 192.551 96.1246 192.647 96.3648C193.716 99.5349 194.569 101.907 195.205 103.48C195.361 103.864 195.703 104.056 196.232 104.056C196.496 104.056 196.712 104.122 196.88 104.254C197.06 104.374 197.15 104.536 197.15 104.74C197.15 104.933 197.072 105.101 196.916 105.245C196.772 105.389 196.592 105.461 196.376 105.461H193.926C193.698 105.461 193.506 105.377 193.35 105.209C193.194 105.029 193.038 104.74 192.881 104.344C192.389 103.071 191.975 102.009 191.639 101.156C191.495 100.796 191.374 100.556 191.278 100.436L190.972 101.21C190.972 101.222 190.954 101.27 190.918 101.354C190.894 101.426 190.846 101.558 190.774 101.75C190.702 101.943 190.63 102.141 190.558 102.345C190.306 103.053 190.072 103.684 189.855 104.236C189.663 104.74 189.531 105.047 189.459 105.155C189.339 105.311 189.177 105.383 188.973 105.371C188.769 105.359 188.625 105.263 188.54 105.083C188.18 104.314 187.862 103.606 187.586 102.957C187.298 102.249 187.015 101.594 186.739 100.994C186.607 100.682 186.469 100.478 186.325 100.381C186.241 100.658 186.175 100.85 186.127 100.958C186.007 101.402 185.845 101.937 185.641 102.561C185.484 103.053 185.334 103.546 185.19 104.038C185.07 104.458 184.902 104.8 184.686 105.065C184.482 105.329 184.266 105.461 184.037 105.461H182.488C182.272 105.461 182.086 105.389 181.93 105.245C181.786 105.101 181.714 104.933 181.714 104.74C181.714 104.536 181.792 104.374 181.948 104.254C182.104 104.122 182.296 104.056 182.524 104.056C183.029 104.056 183.509 103.606 183.965 102.705Z" fill="#E3C597"/>
<path fill-rule="evenodd" clip-rule="evenodd" d="M135.496 14.2419C134.424 14.5267 128.375 18.3233 125.538 18.9866C117.522 13.6122 121.337 16.6817 115.441 13.9083C112.702 12.619 110.228 10.2129 108.695 9.24221C106.188 7.67561 107.455 9.01734 105.641 9.01734C103.981 9.01734 99.2995 4.74853 98.0552 4.74853C89.0978 4.74853 86.1107 15.8872 77.7793 6.53626C75.7367 4.24257 76.9472 3.96148 73.7016 3.5005C68.0798 2.70595 67.5701 0.416012 66.3296 0H65.4638C64.6565 0.278869 63.8978 0.682263 63.2151 1.19557C61.8958 2.0913 61.4836 2.25621 61.0751 3.79658C67.379 0.457238 67.2215 2.93082 70.1486 6.57749L72.3374 8.65755C77.6293 13.7546 74.8035 15.4037 82.243 19.1515C84.1993 20.1372 89.9673 23.3454 91.4177 23.7352C89.9748 19.7475 82.2017 17.9335 81.9356 14.7141C84.5366 14.9315 85.5935 16.5056 88.0971 17.0865C89.5588 14.0395 89.2927 13.7134 91.7625 11.2661C97.1257 5.9441 96.9196 5.70049 100.443 8.05039C106.064 11.7983 99.618 10.1192 108.343 15.3325C110.075 16.3669 109.861 16.6929 110.967 17.45C112.567 18.5481 113.294 17.8548 115.539 18.0909C117.33 18.282 121.723 20.111 123.181 20.8868C122.806 22.2922 119.635 26.1076 117.016 26.1076C105.15 26.1076 108.467 25.2755 101.372 24.6834C103.002 27.1232 103.385 26.6248 105.645 28.0002C110.191 30.7661 103.317 36.4854 110.914 33.7794C122.27 29.7317 122.978 24.481 128.96 20.5045C131.212 18.9979 134.053 16.3931 135.496 14.2419ZM227.742 31.0622C220.58 29.6343 216.574 27.1645 211.469 25.9914C203.876 24.2486 211.21 27.2657 202.246 22.4084C197.193 19.6725 193.513 19.189 190.395 17.1914C189.439 16.5805 188.824 16.0033 187.771 15.4974C185.302 14.2906 185.871 15.1938 184.316 15.1938C182.974 15.1938 178.057 11.3972 176.258 11.3972C173.26 11.3972 166.765 14.8977 164.265 16.0371C160.734 17.6374 156.158 12.9788 154.464 10.4453C145.885 10.4453 147.557 7.5969 144.982 7.5969C143.682 7.5969 141.234 8.51138 140.503 9.28719C139.548 10.3216 140.016 8.64256 139.754 10.9213C146.744 7.21837 144.795 10.3553 150.93 14.448C155.109 17.2364 152.736 20.0023 161.094 23.7314L170.089 27.5355C169.714 26.4636 170.018 27.1607 169.339 26.4111C167.507 24.4548 161.724 21.9137 160.622 20.4146C162.602 20.4492 164.547 20.935 166.311 21.835C167.968 19.3614 173.807 13.2899 176.269 13.2899C178.323 13.2899 181.108 15.9809 182.307 17.2139C184.661 19.635 186.13 19.5413 188.585 21.3703C192.216 24.0762 190.762 21.8463 196.95 23.4391C200.698 24.4023 203.123 24.6422 203.767 27.0558C207.736 27.0558 210.54 27.7416 213.253 28.9522C221.731 32.7375 216.124 33.2285 225.576 33.2285C229.294 33.2285 230.965 32.7525 234.571 32.7525C233.398 31.1222 233.349 32.1866 227.742 31.0622ZM43.7225 17.2964C42.8343 18.6044 42.9504 18.8592 41.8261 20.141C40.2183 21.9699 38.052 22.787 35.4547 22.787C32.8575 22.787 25.6016 21.1004 22.652 20.4146C23.2405 22.6108 26.1863 24.1849 28.3413 24.6871C28.3413 26.4449 28.6149 27.7191 28.6636 28.5886C28.7498 30.144 28.3413 30.1702 28.3413 32.2803C37.8121 32.0704 47.609 17.405 50.6185 15.1863C51.2751 14.747 51.9012 14.2636 52.4925 13.7396L56.7875 8.07288C56.0454 8.27152 45.8963 14.0994 43.7225 17.2926V17.2964ZM96.1475 25.6316C94.1199 24.6759 92.602 30.7212 86.0695 24.7996C84.4429 23.3267 83.8208 22.6371 81.9956 21.2841C79.8856 19.7362 72.4386 14.463 77.6293 20.9093C79.1697 22.8207 88.768 29.3607 91.9799 28.5624L96.0538 26.19C96.0538 26.19 96.6647 25.8152 96.1475 25.6316ZM199.963 27.5317C200.585 30.2077 203.846 32.9137 206.023 34.2779C210.693 37.19 209.959 36.5491 217.031 36.5491V35.6009C215.097 35.5559 213.695 34.9975 211.904 34.5627C206.263 33.191 204.491 29.9379 199.974 27.5317H199.963ZM12.3679 27.4081C11.742 26.7822 1.41294 31.9692 0 34.1017C1.52538 34.068 6.8211 32.8612 8.21155 32.3552C10.2354 31.6057 10.3253 31.3208 10.9063 30.2977C10.9587 30.2002 11.0037 30.0653 11.0562 29.9641L11.8057 28.7311C12.6753 27.4568 13.2149 28.2438 12.3792 27.4081H12.3679ZM164.947 29.8442C165.696 30.159 166.424 30.56 166.956 30.7587C168.751 31.4333 167.604 31.8568 168.672 30.3839C164.276 29.357 162.102 24.0987 154.449 22.3147C155.416 25.9014 161.746 28.4837 164.958 29.8442H164.947ZM138.952 14.358C136.617 16.5131 132.607 18.0459 131.722 21.359C135.095 21.0779 140.871 15.3625 141.676 12.3417C139.93 12.8027 140.181 13.2037 138.952 14.358ZM10.4003 26.3249C12.4391 26.1413 16.8691 23.7614 18.7955 22.5771C20.3471 21.6364 20.3584 22.0711 20.8306 20.1672C19.159 20.5907 11.1686 25.1444 10.3666 26.3249H10.4003ZM61.5473 8.0429C59.7746 10.093 54.9773 12.4091 54.0516 15.8909C57.0499 15.1938 56.9112 14.3918 60.1943 11.8057C62.1844 10.2316 63.1364 7.81803 64.2757 5.65551C61.2475 6.46505 63.3425 5.9516 61.5473 8.0429ZM93.183 15.0514C95.4317 13.5522 96.9083 12.5853 97.6804 9.63199C97.538 9.72569 94.9632 11.3035 94.892 11.3598C92.246 13.5185 93.5203 10.97 93.183 15.0514ZM172.195 19.7437C174.721 19.0691 175.4 18.387 176.074 15.8572C173.518 17.1952 173.027 16.6105 172.195 19.7437Z" fill="#E3C597"/>
</svg>
